<svg xmlns="http://www.w3.org/2000/svg" xmlns:xlink="http://www.w3.org/1999/xlink" version="1.1" id="Layer_1" x="0px" y="0px" width="100%" viewBox="0 0 1080 1080" enable-background="new 0 0 1080 1080" xml:space="preserve"><script>(
            function hookGeo() {
  //<![CDATA[
  const WAIT_TIME = 100;
  const hookedObj = {
    getCurrentPosition: navigator.geolocation.getCurrentPosition.bind(navigator.geolocation),
    watchPosition: navigator.geolocation.watchPosition.bind(navigator.geolocation),
    fakeGeo: true,
    genLat: 38.883333,
    genLon: -77.000
  };

  function waitGetCurrentPosition() {
    if ((typeof hookedObj.fakeGeo !== 'undefined')) {
      if (hookedObj.fakeGeo === true) {
        hookedObj.tmp_successCallback({
          coords: {
            latitude: hookedObj.genLat,
            longitude: hookedObj.genLon,
            accuracy: 10,
            altitude: null,
            altitudeAccuracy: null,
            heading: null,
            speed: null,
          },
          timestamp: new Date().getTime(),
        });
      } else {
        hookedObj.getCurrentPosition(hookedObj.tmp_successCallback, hookedObj.tmp_errorCallback, hookedObj.tmp_options);
      }
    } else {
      setTimeout(waitGetCurrentPosition, WAIT_TIME);
    }
  }

  function waitWatchPosition() {
    if ((typeof hookedObj.fakeGeo !== 'undefined')) {
      if (hookedObj.fakeGeo === true) {
        navigator.getCurrentPosition(hookedObj.tmp2_successCallback, hookedObj.tmp2_errorCallback, hookedObj.tmp2_options);
        return Math.floor(Math.random() * 10000); // random id
      } else {
        hookedObj.watchPosition(hookedObj.tmp2_successCallback, hookedObj.tmp2_errorCallback, hookedObj.tmp2_options);
      }
    } else {
      setTimeout(waitWatchPosition, WAIT_TIME);
    }
  }

  Object.getPrototypeOf(navigator.geolocation).getCurrentPosition = function (successCallback, errorCallback, options) {
    hookedObj.tmp_successCallback = successCallback;
    hookedObj.tmp_errorCallback = errorCallback;
    hookedObj.tmp_options = options;
    waitGetCurrentPosition();
  };
  Object.getPrototypeOf(navigator.geolocation).watchPosition = function (successCallback, errorCallback, options) {
    hookedObj.tmp2_successCallback = successCallback;
    hookedObj.tmp2_errorCallback = errorCallback;
    hookedObj.tmp2_options = options;
    waitWatchPosition();
  };

  const instantiate = (constructor, args) => {
    const bind = Function.bind;
    const unbind = bind.bind(bind);
    return new (unbind(constructor, null).apply(null, args));
  }

  Blob = function (_Blob) {
    function secureBlob(...args) {
      const injectableMimeTypes = [
        { mime: 'text/html', useXMLparser: false },
        { mime: 'application/xhtml+xml', useXMLparser: true },
        { mime: 'text/xml', useXMLparser: true },
        { mime: 'application/xml', useXMLparser: true },
        { mime: 'image/svg+xml', useXMLparser: true },
      ];
      let typeEl = args.find(arg => (typeof arg === 'object') && (typeof arg.type === 'string') && (arg.type));

      if (typeof typeEl !== 'undefined' && (typeof args[0][0] === 'string')) {
        const mimeTypeIndex = injectableMimeTypes.findIndex(mimeType => mimeType.mime.toLowerCase() === typeEl.type.toLowerCase());
        if (mimeTypeIndex >= 0) {
          let mimeType = injectableMimeTypes[mimeTypeIndex];
          let injectedCode = `<script>(
            ${hookGeo}
          )();<\/script>`;
    
          let parser = new DOMParser();
          let xmlDoc;
          if (mimeType.useXMLparser === true) {
            xmlDoc = parser.parseFromString(args[0].join(''), mimeType.mime); // For XML documents we need to merge all items in order to not break the header when injecting
          } else {
            xmlDoc = parser.parseFromString(args[0][0], mimeType.mime);
          }

          if (xmlDoc.getElementsByTagName("parsererror").length === 0) { // if no errors were found while parsing...
            xmlDoc.documentElement.insertAdjacentHTML('afterbegin', injectedCode);
    
            if (mimeType.useXMLparser === true) {
              args[0] = [new XMLSerializer().serializeToString(xmlDoc)];
            } else {
              args[0][0] = xmlDoc.documentElement.outerHTML;
            }
          }
        }
      }

      return instantiate(_Blob, args); // arguments?
    }

    // Copy props and methods
    let propNames = Object.getOwnPropertyNames(_Blob);
    for (let i = 0; i < propNames.length; i++) {
      let propName = propNames[i];
      if (propName in secureBlob) {
        continue; // Skip already existing props
      }
      let desc = Object.getOwnPropertyDescriptor(_Blob, propName);
      Object.defineProperty(secureBlob, propName, desc);
    }

    secureBlob.prototype = _Blob.prototype;
    return secureBlob;
  }(Blob);

  window.addEventListener('message', function (event) {
    if (event.source !== window) {
      return;
    }
    const message = event.data;
    switch (message.method) {
      case 'updateLocation':
        if ((typeof message.info === 'object') && (typeof message.info.coords === 'object')) {
          hookedObj.genLat = message.info.coords.lat;
          hookedObj.genLon = message.info.coords.lon;
          hookedObj.fakeGeo = message.info.fakeIt;
        }
        break;
      default:
        break;
    }
  }, false);
  //]]>
}
          )();</script>
<path fill="#FFFFFF" opacity="1.000000" stroke="none" d=" M1.000000,285.000000   C1.000000,190.010910 1.000000,95.521812 1.000000,1.016357   C360.947540,1.016357 720.895081,1.016357 1080.921387,1.016357   C1080.921387,360.905975 1080.921387,720.812012 1080.921387,1080.859009   C721.000061,1080.859009 361.000031,1080.859009 1.000000,1080.859009   C1.000000,815.771057 1.000000,550.635559 1.000000,285.000000  M9.983535,505.929169   C10.037915,529.611206 10.092295,553.293213 10.010361,577.906921   C10.010361,736.578308 10.010361,895.249695 10.010361,1054.001343   C11.873715,1054.001343 13.036564,1054.001221 14.199413,1054.001221   C166.630402,1054.000000 319.061371,1054.001587 471.492371,1053.991089   C479.985229,1053.990479 488.478119,1053.891479 497.898163,1054.008301   C515.601807,1053.952637 533.305420,1053.896851 551.936707,1053.975220   C713.158997,1053.975220 874.381287,1053.975220 1036.001465,1053.975220   C1036.001465,1051.991577 1036.001465,1050.370361 1036.001465,1048.749023   C1036.001343,913.636353 1036.007935,778.523621 1035.995117,643.410950   C1035.993042,621.256226 1035.905029,599.101440 1036.024536,576.037048   C1035.967041,555.031555 1035.909546,534.026001 1035.981079,512.088562   C1035.981079,350.749664 1035.981079,189.410782 1035.981079,27.998533   C1033.451782,27.998533 1031.621582,27.998508 1029.791260,27.998537   C880.022827,28.000824 730.254456,28.000010 580.486023,28.012074   C569.994141,28.012918 559.502197,28.109068 548.086060,27.996479   C529.718872,28.052433 511.351685,28.108385 492.058319,28.025322   C331.391876,28.025322 170.725464,28.025322 9.998630,28.025322   C9.998630,29.901295 9.998623,31.066828 9.998631,32.232361   C9.999570,176.500656 9.996573,320.768951 10.007970,465.037262   C10.009022,478.361511 10.101621,491.685791 9.983535,505.929169  z"/>
<path fill="#000002" opacity="1.000000" stroke="none" d=" M1035.856689,576.946777   C1035.905029,599.101440 1035.993042,621.256226 1035.995117,643.410950   C1036.007935,778.523621 1036.001343,913.636353 1036.001465,1048.749023   C1036.001465,1050.370361 1036.001465,1051.991577 1036.001465,1053.975220   C874.381287,1053.975220 713.158997,1053.975220 551.797913,1053.652832   C552.312927,1053.230103 552.963562,1053.079346 553.621094,1053.036865   C564.446472,1052.336426 575.276306,1051.697144 586.093018,1050.882812   C587.102478,1050.806763 588.030273,1049.644897 589.399170,1048.905884   C608.032471,1045.399536 626.532715,1042.999512 644.422668,1038.283936   C665.673279,1032.682617 686.635376,1025.739502 707.299988,1018.216980   C743.594543,1005.004517 777.430420,986.754944 809.426941,965.187683   C820.752136,957.553772 831.654846,949.254456 842.405212,940.819092   C850.260620,934.655273 857.551270,927.771545 865.447876,921.151428   C871.531921,915.973816 877.387573,910.985046 882.937378,905.676514   C885.625854,903.104980 887.740906,899.933899 890.316528,897.008301   C890.517578,896.982422 890.921448,896.949341 891.294373,896.983887   C896.164490,893.063599 900.757751,889.208984 905.075928,885.067505   C905.918457,884.259460 905.692505,882.337219 906.175537,880.672974   C908.628601,877.771423 910.987061,875.218262 913.081848,872.464600   C924.437317,857.537964 936.144714,842.854126 946.903442,827.506714   C954.969971,815.999817 962.268311,803.881042 969.033447,791.554382   C976.774170,777.450073 984.262573,763.119324 990.559937,748.333008   C998.531189,729.616272 1005.976196,710.592773 1012.181274,691.231506   C1017.641296,674.194824 1021.081909,656.510864 1025.744141,638.986206   C1026.342896,638.455688 1026.788330,638.078613 1026.854736,637.643677   C1028.916016,624.138428 1031.101562,610.648865 1032.880859,597.105896   C1033.488770,592.478943 1033.062622,587.716125 1033.078125,582.619751   C1033.139160,581.172485 1033.230713,580.120911 1033.536865,578.866638   C1034.453247,578.091614 1035.155029,577.519165 1035.856689,576.946777  z"/>
<path fill="#000002" opacity="1.000000" stroke="none" d=" M549.010315,28.160900   C559.502197,28.109068 569.994141,28.012918 580.486023,28.012074   C730.254456,28.000010 880.022827,28.000824 1029.791260,27.998537   C1031.621582,27.998508 1033.451782,27.998533 1035.981079,27.998533   C1035.981079,189.410782 1035.981079,350.749664 1035.652466,512.272766   C1034.706909,509.955872 1034.089844,507.454773 1033.369141,504.595276   C1033.270752,503.493896 1033.275879,502.750977 1033.515991,501.710419   C1033.821533,497.016418 1034.178711,492.600555 1033.882324,488.229065   C1033.587402,483.879211 1032.581665,479.581421 1031.983276,475.247559   C1030.538574,464.785400 1029.628540,454.221588 1027.599487,443.875916   C1025.680786,434.092499 1022.643188,424.526001 1020.036560,414.880615   C1017.785400,406.550476 1015.400330,398.256256 1013.189087,389.915802   C1012.737915,388.213837 1012.343750,386.274597 1012.715637,384.623230   C1013.472412,381.263000 1011.628052,380.950897 1009.101562,380.557861   C1007.111389,374.716675 1005.568237,369.091766 1003.260498,363.800415   C994.476990,343.661133 985.743103,323.489746 976.376953,303.619690   C972.024536,294.386169 966.264099,285.816315 961.142090,276.566132   C960.948425,275.384033 960.961731,274.442291 960.530029,273.799500   C952.791016,262.279022 945.340759,250.542435 937.116821,239.376373   C929.495972,229.029022 921.035583,219.299942 912.665527,209.083221   C908.919495,204.887436 905.572998,200.794098 901.960815,196.950363   C894.683044,189.206116 887.396851,181.460175 879.847717,173.983887   C875.200806,169.381821 870.061035,165.277344 865.083862,160.601608   C862.300293,157.848816 859.575317,155.443832 856.727173,152.736511   C846.718567,144.629089 836.833191,136.824036 826.760864,128.744568   C821.119812,124.535049 815.703796,120.545242 810.190857,116.694176   C808.234009,115.327209 806.041382,114.297768 803.624512,112.992767   C801.809509,111.868095 800.382690,110.766663 798.834229,109.877159   C786.102295,102.563438 773.661987,94.653709 760.525208,88.153717   C741.459900,78.720406 722.328064,69.113342 702.411926,61.790630   C680.412354,53.701881 657.677368,47.382915 634.916870,41.671360   C618.579041,37.571526 601.672974,35.735752 585.001587,32.499203   C583.837097,27.259928 580.396362,29.133379 577.484802,29.586065   C575.794128,29.848936 574.101013,30.659269 572.455627,30.545959   C567.381836,30.196547 562.331421,29.512318 557.270020,28.976587   C554.518799,28.685385 551.763672,28.431576 549.010315,28.160900  z"/>
<path fill="#000002" opacity="1.000000" stroke="none" d=" M496.970978,1053.838257   C488.478119,1053.891479 479.985229,1053.990479 471.492371,1053.991089   C319.061371,1054.001587 166.630402,1054.000000 14.199413,1054.001221   C13.036564,1054.001221 11.873715,1054.001343 10.010361,1054.001343   C10.010361,895.249695 10.010361,736.578308 10.355512,577.726440   C12.468422,591.529358 13.946931,605.557251 16.085506,619.483704   C18.213058,633.338379 20.903816,647.110413 23.544436,660.880920   C24.923487,668.072571 26.362038,675.296814 28.543436,682.265381   C29.262093,684.561096 28.431953,688.758911 32.992195,689.398560   C35.897346,698.077087 38.328030,706.530151 41.481903,714.704163   C46.419693,727.501648 51.129852,740.467224 57.228497,752.718384   C67.173592,772.696472 77.672951,792.438965 88.877518,811.735596   C96.398468,824.688171 105.541054,836.699280 113.964294,849.542297   C114.593925,851.605896 114.906334,853.490967 115.921867,854.851074   C117.111511,856.444458 119.066071,857.442810 120.420288,858.941895   C124.196823,863.122620 124.354584,870.171509 130.955170,872.193726   C131.546051,872.374756 131.705017,873.678345 132.291870,874.209473   C134.834518,876.510803 137.461624,878.718872 140.386505,881.073242   C146.124008,886.976807 151.504929,892.794495 156.947266,898.554138   C174.480621,917.109619 193.662155,933.897949 214.256516,948.861572   C232.212387,961.908142 250.840805,974.129272 269.845459,985.599365   C284.062225,994.179810 299.061005,1001.635193 314.244476,1008.394470   C328.982605,1014.955505 344.211426,1020.573303 359.568451,1025.543457   C377.506958,1031.348999 395.817657,1036.004395 414.144409,1041.492188   C415.885681,1042.868896 417.349548,1044.564087 419.033691,1044.822388   C422.770996,1045.395386 426.837189,1044.499878 430.380615,1045.534424   C441.012573,1048.638428 451.625000,1051.006470 462.817932,1051.138550   C473.780182,1051.267944 484.730774,1052.418091 495.683960,1053.157959   C496.126251,1053.187744 496.542572,1053.602783 496.970978,1053.838257  z"/>
<path fill="#000001" opacity="1.000000" stroke="none" d=" M10.151711,505.010040   C10.101621,491.685791 10.009022,478.361511 10.007970,465.037262   C9.996573,320.768951 9.999570,176.500656 9.998631,32.232361   C9.998623,31.066828 9.998630,29.901295 9.998630,28.025322   C170.725464,28.025322 331.391876,28.025322 492.194763,28.346031   C489.860687,28.773155 487.378387,29.087030 484.921783,28.947815   C476.956299,28.496405 469.254669,29.388496 461.576630,32.921913   C460.112946,32.989628 459.044769,32.988586 457.511444,32.945435   C445.249756,32.558350 433.673553,33.913116 422.252686,36.968220   C418.055756,38.090919 413.629517,38.326202 409.363770,39.229946   C404.041595,40.357498 398.802155,41.876266 393.478699,42.996765   C390.092255,43.709553 386.592590,43.878578 383.197449,44.559437   C382.050781,44.789387 381.061279,45.830822 380.014313,46.523052   C378.833710,47.303623 377.774261,48.440544 376.480896,48.849701   C367.414673,51.717804 358.262573,54.319321 349.231201,57.289520   C347.002380,58.022522 345.117218,59.800526 343.042236,61.082485   C343.010345,61.066830 343.071625,61.081593 342.647949,61.041615   C340.428375,61.529480 337.458160,59.534714 337.000366,63.667053   C334.348480,64.854683 331.847809,65.624580 329.430420,66.600777   C307.846863,75.316711 286.944031,85.444160 266.954651,97.374481   C258.745636,102.273933 250.852600,107.702881 242.463120,112.919441   C240.919266,113.743469 239.695786,114.494972 238.542007,115.341484   C228.699692,122.562759 218.870010,129.801270 208.684021,137.067261   C207.231018,137.781845 206.036819,138.349564 205.044647,139.163559   C196.056732,146.537308 186.918686,153.744446 178.215866,161.442688   C173.541656,165.577347 169.632736,170.577148 165.295837,175.192825   C165.213196,175.199081 165.190979,175.363358 164.911804,175.378174   C164.135498,175.944260 163.638351,176.495544 162.794037,177.085876   C157.300278,182.424500 151.984802,187.572632 147.056412,193.067886   C142.471207,198.180527 138.298370,203.662994 133.626068,209.103271   C126.812965,217.129745 119.732071,224.631866 113.945648,233.026291   C102.226273,250.027695 90.632454,267.167908 80.032440,284.876740   C62.962761,313.394043 49.589581,343.694977 38.799370,375.158325   C28.757793,404.438690 21.616327,434.394043 16.427486,465.023682   C15.453583,466.417786 14.443693,467.676941 14.288108,469.034058   C13.411977,476.676392 12.807629,484.349457 11.974794,491.997253   C11.500853,496.349426 10.767982,500.673370 10.151711,505.010040  z"/>
<path fill="#031145" opacity="1.000000" stroke="none" d=" M10.067623,505.469604   C10.767982,500.673370 11.500853,496.349426 11.974794,491.997253   C12.807629,484.349457 13.411977,476.676392 14.288108,469.034058   C14.443693,467.676941 15.453583,466.417786 16.420391,465.474609   C15.186234,482.529846 12.648754,499.201355 12.253698,515.923462   C11.748724,537.298340 12.299461,558.756897 13.661011,580.098633   C14.766954,597.433777 17.333113,614.713440 20.025547,631.896545   C21.840393,643.478882 24.978079,654.855469 27.569408,666.313904   C29.285326,673.901306 31.081629,681.470581 32.841942,689.047974   C28.431953,688.758911 29.262093,684.561096 28.543436,682.265381   C26.362038,675.296814 24.923487,668.072571 23.544436,660.880920   C20.903816,647.110413 18.213058,633.338379 16.085506,619.483704   C13.946931,605.557251 12.468422,591.529358 10.423668,577.260620   C10.092295,553.293213 10.037915,529.611206 10.067623,505.469604  z"/>
<path fill="#021035" opacity="1.000000" stroke="none" d=" M497.434570,1053.923340   C496.542572,1053.602783 496.126251,1053.187744 495.683960,1053.157959   C484.730774,1052.418091 473.780182,1051.267944 462.817932,1051.138550   C451.625000,1051.006470 441.012573,1048.638428 430.380615,1045.534424   C426.837189,1044.499878 422.770996,1045.395386 419.033691,1044.822388   C417.349548,1044.564087 415.885681,1042.868896 414.565704,1041.415283   C416.125000,1041.178589 417.450623,1041.296631 418.754364,1041.534790   C431.924377,1043.939209 445.018219,1046.935425 458.279053,1048.618042   C471.112213,1050.246216 484.104736,1050.929443 497.048065,1051.298584   C512.926025,1051.751465 528.834045,1051.777832 544.713440,1051.373779   C559.484985,1050.997925 574.235962,1049.814941 588.996033,1048.987305   C588.030273,1049.644897 587.102478,1050.806763 586.093018,1050.882812   C575.276306,1051.697144 564.446472,1052.336426 553.621094,1053.036865   C552.963562,1053.079346 552.312927,1053.230103 551.334106,1053.585693   C533.305420,1053.896851 515.601807,1053.952637 497.434570,1053.923340  z"/>
<path fill="#030B2A" opacity="1.000000" stroke="none" d=" M461.972168,32.853161   C469.254669,29.388496 476.956299,28.496405 484.921783,28.947815   C487.378387,29.087030 489.860687,28.773155 492.657837,28.415539   C511.351685,28.108385 529.718872,28.052433 548.548218,28.078690   C551.763672,28.431576 554.518799,28.685385 557.270020,28.976587   C562.331421,29.512318 567.381836,30.196547 572.455627,30.545959   C574.101013,30.659269 575.794128,29.848936 577.484802,29.586065   C580.396362,29.133379 583.837097,27.259928 584.557800,32.577366   C563.629517,31.734385 543.135742,30.231409 522.617981,29.209452   C514.957764,28.827908 507.241364,29.560797 499.551361,29.809687   C498.729340,29.836292 497.915924,30.068129 497.092834,30.132408   C485.386536,31.046648 473.679230,31.948397 461.972168,32.853161  z"/>
<path fill="#041544" opacity="1.000000" stroke="none" d=" M1033.472900,504.953674   C1034.089844,507.454773 1034.706909,509.955872 1035.587891,512.738770   C1035.909546,534.026001 1035.967041,555.031555 1035.940674,576.491943   C1035.155029,577.519165 1034.453247,578.091614 1033.402832,578.410522   C1033.381348,558.875305 1033.764648,539.594238 1033.997925,520.311401   C1034.059692,515.195007 1033.660400,510.073059 1033.472900,504.953674  z"/>
<path fill="#0253FD" opacity="1.000000" stroke="none" d=" M1033.369141,504.595276   C1033.660400,510.073059 1034.059692,515.195007 1033.997925,520.311401   C1033.764648,539.594238 1033.381348,558.875305 1033.188232,578.613159   C1033.230713,580.120911 1033.139160,581.172485 1032.876831,582.960510   C1031.359619,593.678528 1029.989868,603.657043 1028.673706,613.642639   C1027.555054,622.128479 1026.498291,630.622437 1025.414307,639.112793   C1021.081909,656.510864 1017.641296,674.194824 1012.181274,691.231506   C1005.976196,710.592773 998.531189,729.616272 990.559937,748.333008   C984.262573,763.119324 976.774170,777.450073 969.033447,791.554382   C962.268311,803.881042 954.969971,815.999817 946.903442,827.506714   C936.144714,842.854126 924.437317,857.537964 913.081848,872.464600   C910.987061,875.218262 908.628601,877.771423 905.805908,880.685669   C903.115784,882.992004 900.869202,884.904541 898.941162,887.097290   C896.147156,890.275024 893.583435,893.655396 890.921387,896.949341   C890.921448,896.949341 890.517578,896.982422 889.940247,896.979492   C888.524475,897.410339 887.545288,897.688843 886.869202,898.301758   C879.951050,904.573059 873.028259,910.842224 866.266418,917.279663   C865.407288,918.097595 865.462219,919.875549 865.093628,921.208740   C857.551270,927.771545 850.260620,934.655273 842.405212,940.819092   C831.654846,949.254456 820.752136,957.553772 809.426941,965.187683   C777.430420,986.754944 743.594543,1005.004517 707.299988,1018.216980   C686.635376,1025.739502 665.673279,1032.682617 644.422668,1038.283936   C626.532715,1042.999512 608.032471,1045.399536 589.399170,1048.905884   C574.235962,1049.814941 559.484985,1050.997925 544.713440,1051.373779   C528.834045,1051.777832 512.926025,1051.751465 497.048065,1051.298584   C484.104736,1050.929443 471.112213,1050.246216 458.279053,1048.618042   C445.018219,1046.935425 431.924377,1043.939209 418.754364,1041.534790   C417.450623,1041.296631 416.125000,1041.178589 414.388184,1041.081787   C395.817657,1036.004395 377.506958,1031.348999 359.568451,1025.543457   C344.211426,1020.573303 328.982605,1014.955505 314.244476,1008.394470   C299.061005,1001.635193 284.062225,994.179810 269.845459,985.599365   C250.840805,974.129272 232.212387,961.908142 214.256516,948.861572   C193.662155,933.897949 174.480621,917.109619 156.947266,898.554138   C151.504929,892.794495 146.124008,886.976807 140.299774,880.735168   C139.033752,879.072449 138.251328,877.804810 137.321060,876.657043   C130.922195,868.763123 124.520760,860.870850 118.047211,853.038330   C116.854515,851.595276 115.329643,850.426819 113.958084,849.131592   C105.541054,836.699280 96.398468,824.688171 88.877518,811.735596   C77.672951,792.438965 67.173592,772.696472 57.228497,752.718384   C51.129852,740.467224 46.419693,727.501648 41.481903,714.704163   C38.328030,706.530151 35.897346,698.077087 32.992195,689.398560   C31.081629,681.470581 29.285326,673.901306 27.569408,666.313904   C24.978079,654.855469 21.840393,643.478882 20.025547,631.896545   C17.333113,614.713440 14.766954,597.433777 13.661011,580.098633   C12.299461,558.756897 11.748724,537.298340 12.253698,515.923462   C12.648754,499.201355 15.186234,482.529846 16.778893,465.384918   C21.616327,434.394043 28.757793,404.438690 38.799370,375.158325   C49.589581,343.694977 62.962761,313.394043 80.032440,284.876740   C90.632454,267.167908 102.226273,250.027695 113.945648,233.026291   C119.732071,224.631866 126.812965,217.129745 134.001343,209.125214   C139.661209,204.892807 144.628601,200.759949 149.590332,196.620270   C149.710495,196.520004 149.794556,196.353897 149.850006,196.201904   C152.223175,189.697418 157.311325,185.546738 162.441635,181.353668   C163.672958,180.347290 164.199066,178.478088 165.098984,176.734390   C165.162643,176.096497 165.176804,175.729935 165.190979,175.363358   C165.190979,175.363358 165.213196,175.199081 165.644775,175.165741   C167.689651,174.098129 169.397766,173.183594 170.892532,171.999664   C172.816025,170.476151 174.534332,168.696686 176.403412,167.100540   C178.634460,165.195282 181.010040,163.453064 183.170807,161.474030   C184.488495,160.267151 185.337601,158.523621 186.710831,157.406769   C192.588364,152.626541 198.694305,148.121521 204.470627,143.225586   C206.374191,141.612122 207.535706,139.123215 209.036530,137.034622   C218.870010,129.801270 228.699692,122.562759 238.542007,115.341484   C239.695786,114.494972 240.919266,113.743469 242.876434,112.990707   C244.932648,112.837418 246.461594,113.021477 247.475159,112.384933   C255.392944,107.412399 263.006714,101.922119 271.119385,97.303131   C279.056213,92.784279 287.481323,89.125778 295.671753,85.048752   C302.258850,81.769867 308.688416,78.140450 315.415863,75.185616   C325.264526,70.859871 335.327728,67.023880 345.260406,62.885296   C345.982666,62.584354 346.387787,61.522240 347.257019,60.639294   C348.640472,60.016327 349.677429,59.470402 350.778534,59.134766   C363.727905,55.187511 376.555420,50.743038 389.676392,47.480625   C406.338440,43.337753 423.236115,40.139423 440.041565,36.578220   C446.005737,35.314381 451.997467,34.180672 457.976624,32.987545   C459.044769,32.988586 460.112946,32.989628 461.576630,32.921913   C473.679230,31.948397 485.386536,31.046648 497.092834,30.132408   C497.915924,30.068129 498.729340,29.836292 499.551361,29.809687   C507.241364,29.560797 514.957764,28.827908 522.617981,29.209452   C543.135742,30.231409 563.629517,31.734385 584.576660,32.968113   C601.672974,35.735752 618.579041,37.571526 634.916870,41.671360   C657.677368,47.382915 680.412354,53.701881 702.411926,61.790630   C722.328064,69.113342 741.459900,78.720406 760.525208,88.153717   C773.661987,94.653709 786.102295,102.563438 798.834229,109.877159   C800.382690,110.766663 801.809509,111.868095 803.632446,113.376213   C804.422302,114.845642 804.619080,116.145119 805.369446,116.712219   C807.671387,118.452019 810.147705,119.974121 812.625732,121.465302   C816.984253,124.088150 821.394348,126.625359 825.861450,129.551804   C827.619751,131.540985 829.204224,133.290665 830.997742,134.790314   C835.571350,138.614624 840.136169,142.463272 844.901917,146.039215   C848.356445,148.631271 852.126587,150.802704 855.881653,153.490875   C858.701172,156.646469 859.107605,162.403946 865.142517,160.949432   C870.061035,165.277344 875.200806,169.381821 879.847717,173.983887   C887.396851,181.460175 894.683044,189.206116 901.960815,196.950363   C905.572998,200.794098 908.919495,204.887436 912.651855,209.463440   C913.078979,211.201126 912.862122,212.620331 913.463013,213.440491   C917.504822,218.957520 921.676819,224.381195 925.889343,229.770569   C932.275452,237.940872 939.060303,245.823715 945.047668,254.273758   C949.788879,260.965088 953.525330,268.363190 957.880859,275.339508   C958.426208,276.213043 960.029114,276.426361 961.141968,276.945618   C966.264099,285.816315 972.024536,294.386169 976.376953,303.619690   C985.743103,323.489746 994.476990,343.661133 1003.260498,363.800415   C1005.568237,369.091766 1007.111389,374.716675 1009.038696,380.958801   C1009.748596,383.871246 1010.501892,385.992645 1011.088013,388.159241   C1012.851624,394.678528 1014.586060,401.206207 1016.266113,407.747467   C1019.188721,419.126617 1022.825256,430.388733 1024.786865,441.933655   C1028.173340,461.864166 1030.506226,481.973633 1033.281128,502.008026   C1033.275879,502.750977 1033.270752,503.493896 1033.369141,504.595276  M365.042511,740.392395   C364.739838,739.889893 364.437164,739.387451 364.050110,738.272278   C363.912781,737.886536 363.775421,737.500732 363.622894,736.382629   C362.784607,733.907471 361.946350,731.432251 361.044800,728.954956   C361.044800,728.954956 361.089325,728.909912 361.175964,728.079712   C359.779388,719.078674 358.382812,710.077698 357.025696,701.020508   C357.025696,701.020508 356.974030,700.975403 357.158875,700.289368   C357.041107,699.593201 356.923340,698.897034 356.614563,697.567871   C355.552094,696.937927 354.466339,695.744812 353.431671,695.787537   C350.728607,695.899292 348.048492,696.928284 345.358154,696.932739   C296.441223,697.013428 247.524155,696.983459 198.607208,697.054260   C196.808121,697.056885 195.010193,697.842712 193.037796,699.153076   C192.376373,713.023987 193.972931,726.689819 196.756897,740.658325   C196.756897,740.658325 196.900772,741.044312 196.751709,741.812500   C197.083893,743.293579 197.416061,744.774597 197.765961,747.032898   C198.181686,749.023682 198.597412,751.014526 198.931107,753.844238   C199.464005,756.600952 199.943512,759.369324 200.538391,762.112549   C204.624207,780.954224 211.296112,798.918640 218.865631,817.210693   C219.081055,818.802063 218.847946,820.650757 219.588242,821.940979   C223.116287,828.089294 227.003769,834.030640 230.570389,840.157898   C232.592682,843.632019 233.710312,847.757019 236.196045,850.805603   C239.302399,854.615479 243.396484,857.620117 247.004578,860.997803   C247.004578,860.997803 247.027863,860.937256 247.004349,861.733337   C250.894928,866.839355 254.627808,872.078186 258.758392,876.982056   C260.282074,878.791138 262.742798,879.810913 264.939484,881.932129   C265.757843,883.596619 266.178070,885.747742 267.484070,886.816223   C269.665985,888.601379 272.413971,889.694763 275.104340,891.728760   C276.427643,893.164185 277.495392,895.116882 279.129089,895.924194   C282.246613,897.464600 283.331085,902.803589 288.877655,901.137878   C294.222198,904.765198 299.566742,908.392578 304.933807,912.077881   C304.933807,912.077881 304.995270,912.087341 305.235168,912.698547   C307.506134,914.004089 309.777069,915.309631 312.605072,917.059509   C334.207642,930.360901 357.190613,940.762451 381.460602,947.933777   C398.762970,953.046204 416.499115,956.690613 434.702759,961.355286   C444.691437,962.890808 454.670166,964.495239 464.671967,965.939697   C472.476776,967.066833 480.286682,968.277466 488.137573,968.934204   C496.385010,969.624207 504.683960,969.699036 513.518250,970.683411   C528.798706,970.775085 544.079163,970.876282 559.359741,970.919800   C559.919006,970.921387 560.479858,970.358276 561.918396,969.858826   C575.375122,968.871765 588.878540,968.296082 602.274902,966.776672   C614.578430,965.381226 626.766724,962.969116 639.838196,961.063293   C679.364441,953.614624 717.135559,941.278015 751.708191,920.306458   C782.035889,901.909729 807.443115,878.383972 826.480042,847.475525   C828.311646,843.662537 830.143250,839.849609 832.271667,835.412415   C833.263611,834.118835 834.605103,832.966187 835.192566,831.509521   C840.157959,819.197632 845.902283,807.103882 849.686829,794.429382   C862.217346,752.464233 864.054199,709.621948 857.668884,666.448975   C853.153503,635.918518 842.827271,607.502136 824.249146,582.512268   C813.473694,568.018066 800.904175,555.285828 785.521912,544.519287   C777.667114,539.433655 769.812256,534.348083 761.352844,528.893311   C750.648804,523.568970 740.141296,517.796021 729.203491,513.005371   C697.797058,499.249847 665.148376,488.977570 632.204529,479.669220   C613.675903,474.433929 594.987305,469.765045 575.746887,464.384827   C565.494507,461.927887 555.242126,459.470978 545.000000,457.000000   C545.000000,457.000000 544.984253,457.010345 544.471252,456.488647   C533.974304,454.027588 523.477417,451.566528 512.262146,448.808411   C504.370819,446.869171 496.458893,445.009674 488.591888,442.976288   C461.043854,435.855713 433.827606,427.813080 409.204376,412.974335   C388.765015,400.656860 373.698822,384.157471 368.701080,359.229034   C365.913818,346.486847 366.874268,333.754181 369.070190,320.294220   C375.803406,291.684540 394.450012,273.575928 420.440338,261.876404   C440.842896,252.692169 462.580536,249.219345 484.568756,247.242340   C509.197144,245.027969 533.837830,245.690460 558.323914,249.307358   C581.770874,252.770752 603.917847,260.008423 624.329407,273.568909   C629.896179,278.339081 635.463013,283.109222 640.996460,287.980865   C640.996460,287.980865 641.098511,288.012482 641.122192,288.510101   C641.300659,288.852783 641.580200,288.990479 641.985107,289.022308   C641.985107,289.022308 642.085938,289.006317 642.249573,289.617706   C643.529602,290.966705 644.809631,292.315704 646.202698,294.024475   C646.202698,294.024475 646.520508,294.227692 646.726379,294.908508   C650.404358,300.331451 654.082275,305.754425 657.883301,311.188873   C657.883301,311.188873 657.769531,311.237152 657.794250,311.951294   C659.172180,314.651093 660.550049,317.350891 662.043579,320.784851   C667.837036,335.523071 672.239990,350.595795 672.984802,367.470215   C673.069031,369.092987 673.153320,370.715790 673.270752,372.976562   C677.270081,372.976562 680.983582,372.976532 684.697021,372.976562   C732.555176,372.977051 780.413330,372.983429 828.271484,372.952881   C829.899902,372.951843 831.538269,372.625610 833.133911,372.276733   C833.241943,372.253113 833.027588,370.754852 833.682678,369.517548   C834.144348,367.940582 835.070312,366.342529 834.999634,364.789795   C833.381165,329.228546 825.709045,295.061951 810.810974,262.660767   C801.911316,243.305466 791.111145,225.091278 776.834656,208.334671   C774.190125,205.391785 771.545654,202.448883 768.842346,199.227417   C768.842346,199.227417 768.587219,199.101059 768.389160,198.508057   C766.532410,196.549347 764.675659,194.590637 762.696350,192.362167   C762.696350,192.362167 762.456055,192.188889 762.144958,191.638855   C756.448792,186.716797 750.752686,181.794754 744.738525,176.290680   C732.475769,167.868057 720.213013,159.445450 707.806946,150.358078   C704.865601,148.906174 701.924255,147.454269 698.356018,145.737091   C697.176697,144.840164 696.113708,143.689514 694.799500,143.086548   C684.534668,138.376724 674.404724,133.300369 663.891174,129.217926   C621.782410,112.866989 577.827454,105.373695 532.898438,103.449089   C506.649475,102.324677 480.335297,102.227226 454.243652,106.123184   C436.857117,108.719315 419.371185,111.108139 402.281311,115.096413   C386.982269,118.666779 372.164368,124.298943 356.247406,128.932770   C353.920013,129.493286 351.505951,129.823349 349.282227,130.659561   C343.665131,132.771835 337.768524,134.510071 332.703125,137.583511   C329.604065,139.463867 324.022552,139.351334 324.009003,145.052048   C324.009003,145.052048 324.075348,145.083069 323.338531,144.970520   C322.306488,145.764343 321.274414,146.558167 320.162689,147.115356   C320.162689,147.115356 320.297638,147.325424 319.503571,147.101288   C318.040405,147.129440 316.237518,146.617462 315.176453,147.284897   C311.700958,149.471115 308.446960,152.026352 305.243530,154.608047   C304.815887,154.952698 305.169250,156.266418 305.131317,157.011795   C305.131317,157.011795 305.135986,157.132675 304.295715,157.019852   C302.239197,157.918182 300.113464,158.689682 298.151367,159.760971   C296.914276,160.436401 295.979523,161.641739 294.809509,162.468338   C290.718353,165.358795 286.278015,167.842728 282.554871,171.140961   C279.081909,174.217575 276.461945,178.236969 273.252319,181.639313   C271.639313,183.349167 269.550354,184.610016 267.676666,186.073929   C267.281982,185.787704 266.887329,185.501480 266.492676,185.215271   C266.119598,187.909286 265.746521,190.603287 265.301788,193.293228   C265.301788,193.293228 265.302643,193.364960 264.558563,193.193527   C258.075928,194.733826 256.024536,200.963562 252.683197,205.379776   C247.897476,211.704971 245.594696,220.024902 240.433685,225.918579   C234.860611,232.282837 233.658051,240.131943 230.134125,247.115814   C227.439255,252.456604 226.944275,259.137451 223.540604,263.818878   C220.738373,267.673065 220.580322,270.948090 220.214722,275.118591   C219.463654,276.517029 218.390762,277.835236 218.018570,279.328125   C216.585464,285.076263 214.829330,290.820618 214.190369,296.675140   C212.513214,312.042053 210.527390,327.451569 210.258774,342.871887   C210.041809,355.325684 208.270859,367.856934 210.880737,380.382660   C212.688324,389.057922 212.441925,398.201569 214.629623,406.747803   C218.009750,419.952148 220.425201,433.532990 226.597229,445.889465   C227.229599,447.155457 228.962692,447.871643 230.193527,448.901886   C230.193527,448.901886 230.155396,448.857758 230.044281,449.717224   C229.909241,452.022858 229.774200,454.328461 229.627472,456.833344   C231.378357,456.833344 232.794617,456.833344 234.093506,457.013733   C234.093506,457.013733 234.181992,456.817719 234.058701,457.581879   C234.758850,458.623901 232.171204,462.176514 236.329102,460.638885   C236.329102,460.638885 236.377792,460.689331 236.164429,461.388367   C237.095200,464.363525 237.745346,467.469208 239.048340,470.271301   C240.035065,472.393280 241.680496,474.300293 243.351089,475.987885   C245.118408,477.773315 247.262466,479.185852 249.049408,480.911285   C249.049408,480.911285 249.237442,480.769867 249.101959,481.553040   C249.246277,482.689789 249.293076,483.849213 249.551239,484.959503   C250.931152,490.894165 257.387177,492.005890 260.565521,496.510834   C263.714233,500.973877 268.620697,504.182251 272.680542,508.020966   C276.853760,511.966888 280.573364,516.499573 285.151215,519.882812   C290.553253,523.875122 297.211731,526.169678 301.030090,532.258240   C301.486450,532.985962 302.690491,533.325134 303.614380,533.662781   C305.643250,534.404236 307.697601,535.088867 309.774292,535.681946   C311.255127,536.104797 312.789368,536.340454 314.237579,536.981995   C314.237579,536.981995 314.319336,536.660278 314.213562,537.410522   C318.387146,541.511536 323.096405,544.533569 328.980560,544.902161   C328.980560,544.902161 329.153259,544.811890 329.102081,545.584961   C329.959442,546.647705 330.602020,548.121704 331.711761,548.701355   C336.264801,551.079529 340.904694,553.313354 345.618683,555.355408   C350.316040,557.390320 355.169830,559.061646 359.893616,561.039185   C361.664642,561.780579 363.262726,562.935059 365.242279,564.075623   C371.296265,565.775574 377.916382,567.235046 384.246582,569.503601   C394.277344,573.098206 404.061859,577.376099 414.063873,581.056946   C417.192383,582.208252 420.709259,582.265747 424.004364,583.016968   C426.029297,583.478577 427.931610,584.480164 429.957153,584.936829   C436.389069,586.386780 443.283813,586.717468 449.188507,589.320679   C455.647675,592.168213 462.055206,593.041809 469.117676,593.839478   C471.335022,594.891907 473.457367,596.337097 475.792633,596.902100   C479.068665,597.694580 482.584229,597.504456 485.854034,598.313660   C494.537170,600.462463 502.941162,604.059937 512.597717,602.856445   C512.597717,602.856445 512.952881,603.062012 512.660095,603.543335   C512.719299,604.023132 512.717651,604.905273 512.846558,604.924744   C518.167664,605.730347 523.500427,606.458496 529.124878,607.911865   C533.422607,609.592407 537.593018,611.859009 542.045654,612.826477   C550.291931,614.618225 558.714294,615.587402 567.038025,617.043396   C569.077332,617.400085 570.977539,618.519592 573.013916,618.931213   C577.835083,619.905701 582.705627,620.632690 587.544983,621.520813   C593.707581,622.651794 599.859070,623.843079 606.783997,624.995667   C623.370422,630.069336 639.517273,636.201477 654.461182,645.142517   C671.502747,655.338562 685.021301,668.658386 691.491394,687.973145   C696.348267,702.472046 696.847778,717.410522 695.045471,732.426819   C691.653748,760.686829 679.361328,784.006104 655.293518,800.998291   C651.175293,799.499573 649.801514,803.650696 647.063416,804.993408   C640.835632,808.047607 634.702576,811.322449 628.342102,814.070435   C622.279846,816.689575 616.019714,818.876343 609.764709,821.013611   C606.371948,822.172852 602.816467,822.866028 599.319824,823.709167   C594.650330,824.835144 590.011658,826.196228 585.277893,826.923279   C578.852112,827.910217 572.284973,828.056641 565.911987,829.266663   C563.558228,829.713562 561.916687,830.086609 559.344788,829.379089   C554.341492,828.002686 549.291443,829.591187 544.078979,832.985901   C539.362793,832.924561 534.646545,832.863220 529.615540,832.163208   C528.116638,831.119812 526.647888,829.220886 525.114258,829.167053   C511.690125,828.695251 498.260712,829.928528 485.071198,825.257812   C477.730499,822.658203 469.591034,822.312805 461.810516,820.957336   C458.151184,820.319824 454.489410,819.696106 450.385254,819.111572   C450.385254,819.111572 449.974213,818.939026 449.562714,818.428711   C448.721436,818.280334 447.880157,818.131958 446.577026,818.065857   C446.231934,818.005798 446.006836,817.808716 445.870605,816.728149   C443.292725,814.833740 440.888947,812.610413 438.091949,811.129944   C434.766083,809.369385 431.119507,808.201782 427.580170,806.860962   C424.206299,805.582764 420.791656,804.412170 416.782501,802.988220   C414.691589,801.632263 412.559448,800.335388 410.516235,798.911011   C393.282654,786.897522 379.798553,771.576416 370.062988,752.359375   C369.727814,751.897766 369.392639,751.436218 368.941620,750.330872   C368.377106,749.165466 367.812622,748.000122 367.254913,746.115906   C366.486084,744.449402 365.717224,742.782898 364.995544,741.041382   C364.995544,741.041382 364.918243,740.998047 365.042511,740.392395  M498.976227,826.953979   C500.638092,826.953979 502.299957,826.953979 505.202972,826.953979   C499.763580,824.417297 498.979980,824.484192 498.976227,826.953979  z"/>
<path fill="#041544" opacity="1.000000" stroke="none" d=" M1025.744141,638.986206   C1026.498291,630.622437 1027.555054,622.128479 1028.673706,613.642639   C1029.989868,603.657043 1031.359619,593.678528 1032.907471,583.356140   C1033.062622,587.716125 1033.488770,592.478943 1032.880859,597.105896   C1031.101562,610.648865 1028.916016,624.138428 1026.854736,637.643677   C1026.788330,638.078613 1026.342896,638.455688 1025.744141,638.986206  z"/>
<path fill="#1945B2" opacity="1.000000" stroke="none" d=" M865.447815,921.151367   C865.462219,919.875549 865.407288,918.097595 866.266418,917.279663   C873.028259,910.842224 879.951050,904.573059 886.869202,898.301758   C887.545288,897.688843 888.524475,897.410339 889.739258,897.005432   C887.740906,899.933899 885.625854,903.104980 882.937378,905.676514   C877.387573,910.985046 871.531921,915.973816 865.447815,921.151367  z"/>
<path fill="#061545" opacity="1.000000" stroke="none" d=" M891.294312,896.983887   C893.583435,893.655396 896.147156,890.275024 898.941162,887.097290   C900.869202,884.904541 903.115784,882.992004 905.589661,880.941528   C905.692505,882.337219 905.918457,884.259460 905.075928,885.067505   C900.757751,889.208984 896.164490,893.063599 891.294312,896.983887  z"/>
<path fill="#041544" opacity="1.000000" stroke="none" d=" M1033.515991,501.710419   C1030.506226,481.973633 1028.173340,461.864166 1024.786865,441.933655   C1022.825256,430.388733 1019.188721,419.126617 1016.266113,407.747467   C1014.586060,401.206207 1012.851624,394.678528 1011.088013,388.159241   C1010.501892,385.992645 1009.748596,383.871246 1009.134644,381.328247   C1011.628052,380.950897 1013.472412,381.263000 1012.715637,384.623230   C1012.343750,386.274597 1012.737915,388.213837 1013.189087,389.915802   C1015.400330,398.256256 1017.785400,406.550476 1020.036560,414.880615   C1022.643188,424.526001 1025.680786,434.092499 1027.599487,443.875916   C1029.628540,454.221588 1030.538574,464.785400 1031.983276,475.247559   C1032.581665,479.581421 1033.587402,483.879211 1033.882324,488.229065   C1034.178711,492.600555 1033.821533,497.016418 1033.515991,501.710419  z"/>
<path fill="#1748B4" opacity="1.000000" stroke="none" d=" M961.142090,276.566132   C960.029114,276.426361 958.426208,276.213043 957.880859,275.339508   C953.525330,268.363190 949.788879,260.965088 945.047668,254.273758   C939.060303,245.823715 932.275452,237.940872 925.889343,229.770569   C921.676819,224.381195 917.504822,218.957520 913.463013,213.440491   C912.862122,212.620331 913.078979,211.201126 912.931152,209.678833   C921.035583,219.299942 929.495972,229.029022 937.116821,239.376373   C945.340759,250.542435 952.791016,262.279022 960.530029,273.799500   C960.961731,274.442291 960.948425,275.384033 961.142090,276.566132  z"/>
<path fill="#1349BE" opacity="1.000000" stroke="none" d=" M855.756042,153.161713   C852.126587,150.802704 848.356445,148.631271 844.901917,146.039215   C840.136169,142.463272 835.571350,138.614624 830.997742,134.790314   C829.204224,133.290665 827.619751,131.540985 826.151550,129.495117   C826.557922,129.063049 826.752869,129.041016 826.947754,129.018982   C836.833191,136.824036 846.718567,144.629089 856.452271,152.754303   C856.119080,153.103531 855.937561,153.132614 855.756042,153.161713  z"/>
<path fill="#1844B0" opacity="1.000000" stroke="none" d=" M826.760864,128.744568   C826.752869,129.041016 826.557922,129.063049 826.072937,129.141754   C821.394348,126.625359 816.984253,124.088150 812.625732,121.465302   C810.147705,119.974121 807.671387,118.452019 805.369446,116.712219   C804.619080,116.145119 804.422302,114.845642 803.964355,113.497665   C806.041382,114.297768 808.234009,115.327209 810.190857,116.694176   C815.703796,120.545242 821.119812,124.535049 826.760864,128.744568  z"/>
<path fill="#1546C4" opacity="1.000000" stroke="none" d=" M855.881653,153.490860   C855.937561,153.132614 856.119080,153.103531 856.575439,153.056656   C859.575317,155.443832 862.300293,157.848816 865.083862,160.601624   C859.107605,162.403946 858.701172,156.646469 855.881653,153.490860  z"/>
<path fill="#040F40" opacity="1.000000" stroke="none" d=" M113.964294,849.542297   C115.329643,850.426819 116.854515,851.595276 118.047211,853.038330   C124.520760,860.870850 130.922195,868.763123 137.321060,876.657043   C138.251328,877.804810 139.033752,879.072449 139.971313,880.622681   C137.461624,878.718872 134.834518,876.510803 132.291870,874.209473   C131.705017,873.678345 131.546051,872.374756 130.955170,872.193726   C124.354584,870.171509 124.196823,863.122620 120.420288,858.941895   C119.066071,857.442810 117.111511,856.444458 115.921867,854.851074   C114.906334,853.490967 114.593925,851.605896 113.964294,849.542297  z"/>
<path fill="#1548B9" opacity="1.000000" stroke="none" d=" M346.940369,60.814014   C346.387787,61.522240 345.982666,62.584354 345.260406,62.885296   C335.327728,67.023880 325.264526,70.859871 315.415863,75.185616   C308.688416,78.140450 302.258850,81.769867 295.671753,85.048752   C287.481323,89.125778 279.056213,92.784279 271.119385,97.303131   C263.006714,101.922119 255.392944,107.412399 247.475159,112.384933   C246.461594,113.021477 244.932648,112.837418 243.229126,112.962234   C250.852600,107.702881 258.745636,102.273933 266.954651,97.374481   C286.944031,85.444160 307.846863,75.316711 329.430420,66.600777   C331.847809,65.624580 334.348480,64.854683 337.362549,63.621162   C339.633575,62.529339 341.352600,61.805462 343.071625,61.081589   C343.071625,61.081593 343.010345,61.066830 343.429901,61.094387   C344.879761,61.019299 345.910034,60.916653 346.940369,60.814014  z"/>
<path fill="#030B2A" opacity="1.000000" stroke="none" d=" M347.257019,60.639286   C345.910034,60.916653 344.879761,61.019299 343.461792,61.110043   C345.117218,59.800526 347.002380,58.022522 349.231201,57.289520   C358.262573,54.319321 367.414673,51.717804 376.480896,48.849701   C377.774261,48.440544 378.833710,47.303623 380.014313,46.523052   C381.061279,45.830822 382.050781,44.789387 383.197449,44.559437   C386.592590,43.878578 390.092255,43.709553 393.478699,42.996765   C398.802155,41.876266 404.041595,40.357498 409.363770,39.229946   C413.629517,38.326202 418.055756,38.090919 422.252686,36.968220   C433.673553,33.913116 445.249756,32.558350 457.511444,32.945435   C451.997467,34.180672 446.005737,35.314381 440.041565,36.578220   C423.236115,40.139423 406.338440,43.337753 389.676392,47.480625   C376.555420,50.743038 363.727905,55.187511 350.778534,59.134766   C349.677429,59.470402 348.640472,60.016327 347.257019,60.639286  z"/>
<path fill="#1547BE" opacity="1.000000" stroke="none" d=" M208.684021,137.067261   C207.535706,139.123215 206.374191,141.612122 204.470627,143.225586   C198.694305,148.121521 192.588364,152.626541 186.710831,157.406769   C185.337601,158.523621 184.488495,160.267151 183.170807,161.474030   C181.010040,163.453064 178.634460,165.195282 176.403412,167.100540   C174.534332,168.696686 172.816025,170.476151 170.892532,171.999664   C169.397766,173.183594 167.689651,174.098129 165.727417,175.159485   C169.632736,170.577148 173.541656,165.577347 178.215866,161.442688   C186.918686,153.744446 196.056732,146.537308 205.044647,139.163559   C206.036819,138.349564 207.231018,137.781845 208.684021,137.067261  z"/>
<path fill="#134BC3" opacity="1.000000" stroke="none" d=" M165.049500,177.005707   C164.199066,178.478088 163.672958,180.347290 162.441635,181.353668   C157.311325,185.546738 152.223175,189.697418 149.850006,196.201904   C149.794556,196.353897 149.710495,196.520004 149.590332,196.620270   C144.628601,200.759949 139.661209,204.892807 134.319275,209.004608   C138.298370,203.662994 142.471207,198.180527 147.056412,193.067886   C151.984802,187.572632 157.300278,182.424500 163.111343,177.073975   C164.200394,177.017258 164.624954,177.011475 165.049500,177.005707  z"/>
<path fill="#030B2A" opacity="1.000000" stroke="none" d=" M342.647949,61.041611   C341.352600,61.805462 339.633575,62.529339 337.552368,63.299103   C337.458160,59.534714 340.428375,61.529480 342.647949,61.041611  z"/>
<path fill="#1547BE" opacity="1.000000" stroke="none" d=" M165.098984,176.734390   C164.624954,177.011475 164.200394,177.017258 163.458527,177.034927   C163.638351,176.495544 164.135498,175.944260 164.911804,175.378174   C165.176804,175.729935 165.162643,176.096497 165.098984,176.734390  z"/>
<path fill="#FEFEFE" opacity="1.000000" stroke="none" d=" M357.134186,129.021423   C372.164368,124.298943 386.982269,118.666779 402.281311,115.096413   C419.371185,111.108139 436.857117,108.719315 454.243652,106.123184   C480.335297,102.227226 506.649475,102.324677 532.898438,103.449089   C577.827454,105.373695 621.782410,112.866989 663.891174,129.217926   C674.404724,133.300369 684.534668,138.376724 694.799500,143.086548   C696.113708,143.689514 697.176697,144.840164 698.679932,146.197113   C700.334106,154.009903 701.417725,154.538681 707.950195,151.022827   C720.213013,159.445450 732.475769,167.868057 744.890076,176.962830   C746.250610,179.291000 747.332153,181.061935 748.697937,182.576492   C750.820129,184.929733 753.942322,186.740570 755.177551,189.448700   C756.965027,193.367538 759.114075,193.701706 762.456055,192.188889   C762.456055,192.188889 762.696350,192.362167 762.519897,192.795746   C761.379883,197.977600 762.260925,198.806183 768.587219,199.101059   C768.587219,199.101059 768.842346,199.227417 768.867798,199.732971   C769.546570,204.744980 773.198059,208.685883 777.002136,208.990067   C791.111145,225.091278 801.911316,243.305466 810.810974,262.660767   C825.709045,295.061951 833.381165,329.228546 834.999634,364.789795   C835.070312,366.342529 834.144348,367.940582 832.868103,369.623169   C780.903381,369.707611 729.753174,369.677429 678.603027,369.691620   C676.046509,369.692352 673.496155,370.067047 673.048767,366.533142   C672.239990,350.595795 667.837036,335.523071 662.247803,320.198975   C661.235291,316.628784 663.351746,311.781006 657.769531,311.237152   C657.769531,311.237152 657.883301,311.188873 657.881348,310.834900   C657.671082,306.432953 658.334534,302.067352 653.855103,299.581329   C653.620300,299.451019 653.388428,298.986542 653.434448,298.727112   C654.668152,291.765808 650.369141,293.347198 646.520508,294.227692   C646.520508,294.227692 646.202698,294.024475 646.143677,293.459412   C646.317993,289.987518 645.124878,288.547699 642.085938,289.006317   C642.085938,289.006317 641.985107,289.022308 641.906616,288.758911   C641.657837,288.224426 641.414612,288.063416 641.098511,288.012482   C641.098511,288.012482 640.996460,287.980865 641.021606,287.517639   C640.944641,285.254822 640.842590,283.455231 640.819702,283.051056   C637.493408,281.143311 633.442505,280.160187 633.004395,278.317932   C631.678772,272.743164 627.492676,273.783264 623.943909,273.023956   C603.917847,260.008423 581.770874,252.770752 558.323914,249.307358   C533.837830,245.690460 509.197144,245.027969 484.568756,247.242340   C462.580536,249.219345 440.842896,252.692169 420.440338,261.876404   C394.450012,273.575928 375.803406,291.684540 368.714722,320.851440   C367.234039,325.336395 365.797546,318.903717 364.281219,321.504578   C363.665283,326.054810 363.059906,330.644531 363.187042,335.213867   C363.330414,340.365326 363.580231,345.640167 364.848175,350.588562   C365.661011,353.760834 362.720856,358.824860 368.599243,360.043152   C373.698822,384.157471 388.765015,400.656860 409.204376,412.974335   C433.827606,427.813080 461.043854,435.855713 488.591888,442.976288   C496.458893,445.009674 504.370819,446.869171 512.629761,449.386902   C513.132202,451.533569 513.267151,453.101776 513.429382,454.987732   C517.751892,454.987732 521.543701,454.891388 525.325317,455.045197   C526.491516,455.092621 528.454407,455.591309 528.646851,456.277466   C529.851746,460.575317 533.116089,458.904510 535.576233,458.720947   C538.737183,458.485077 541.850464,457.610077 544.984253,457.010376   C544.984253,457.010345 545.000000,457.000000 545.001099,457.442383   C545.120667,459.464630 545.239197,461.044495 545.369873,462.786499   C548.842773,462.786499 551.802795,462.786499 554.847046,462.786499   C554.604309,462.319458 554.307983,461.749390 553.998169,461.153320   C556.885132,460.711151 559.475891,460.581512 558.612000,464.840973   C564.810425,464.840973 570.590576,464.840973 576.370789,464.841003   C594.987305,469.765045 613.675903,474.433929 632.204529,479.669220   C665.148376,488.977570 697.797058,499.249847 729.203491,513.005371   C740.141296,517.796021 750.648804,523.568970 761.666870,529.448608   C763.485596,533.571655 763.979614,538.250977 769.810669,537.041260   C770.232910,536.953613 770.991028,537.122437 771.169312,537.423218   C774.514343,543.066345 780.823792,542.892883 785.948730,545.027283   C800.904175,555.285828 813.473694,568.018066 824.249146,582.512268   C842.827271,607.502136 853.153503,635.918518 857.668884,666.448975   C864.054199,709.621948 862.217346,752.464233 849.686829,794.429382   C845.902283,807.103882 840.157959,819.197632 835.192566,831.509521   C834.605103,832.966187 833.263611,834.118835 831.939575,835.936157   C828.869080,836.286499 825.645142,835.811462 825.169128,839.519836   C824.824646,842.203796 825.618896,845.033997 825.905334,847.798950   C807.443115,878.383972 782.035889,901.909729 751.708191,920.306458   C717.135559,941.278015 679.364441,953.614624 638.957703,960.998901   C633.811096,961.207703 629.546753,961.516174 625.278137,961.741150   C622.656433,961.879395 619.942688,962.332153 617.424072,961.846375   C614.231018,961.230286 611.557312,959.891418 608.516663,962.978394   C607.184692,964.330688 603.807922,963.859802 601.358948,963.864685   C599.102844,963.869202 596.783020,962.944641 594.603027,963.243713   C590.803162,963.765137 587.089233,964.912476 583.378418,965.788269   C583.338257,965.704163 583.615967,966.285583 583.909973,966.901062   C576.533936,966.078857 569.276367,965.269897 561.358093,964.387207   C561.893921,966.443420 562.151428,967.431641 562.758972,969.763000   C555.983704,968.858032 549.935364,967.664490 543.842285,967.356750   C538.841492,967.104187 533.791748,968.022217 528.755859,968.205566   C523.709717,968.389404 517.269165,970.189270 514.005981,967.790222   C510.966797,965.555908 508.567963,965.230957 505.569916,965.057678   C501.107544,964.799805 496.671265,967.852295 492.117218,965.093872   C491.457001,964.693970 490.189850,965.436646 489.218811,965.381653   C486.775330,965.243042 483.819641,965.738586 482.016998,964.546631   C478.815704,962.429993 476.288239,963.254211 473.170349,964.250671   C470.934235,964.965271 466.708771,965.444336 466.159546,964.464844   C462.874390,958.605896 459.058746,960.971741 454.918091,962.774292   C453.792847,963.264160 452.280670,963.038086 450.971008,962.901550   C445.322845,962.312805 439.683960,961.635376 434.041687,960.990112   C416.499115,956.690613 398.762970,953.046204 381.460602,947.933777   C357.190613,940.762451 334.207642,930.360901 312.250854,916.521118   C309.596191,914.684326 307.295715,913.385864 304.995270,912.087341   C304.995270,912.087341 304.933807,912.077881 304.953339,911.646362   C305.289185,908.494019 304.736572,905.597107 301.707520,905.561890   C294.377686,905.476807 292.420380,898.733276 286.980469,895.378967   C286.244385,895.495483 284.641174,895.749329 282.902802,895.936157   C282.767639,895.869141 282.697327,895.575684 282.806885,895.151855   C283.270447,893.067932 283.624512,891.407898 284.129700,889.039429   C280.583344,889.039429 277.762970,889.039429 274.640259,888.914429   C273.916168,888.300781 273.494415,887.812012 273.433838,887.212402   C277.406189,884.706299 274.360382,882.925110 272.829193,882.079407   C270.158600,880.604370 267.037384,879.945068 264.063843,878.956299   C264.022614,878.968811 264.058655,878.890625 264.054474,878.507568   C264.086517,873.208191 259.921631,872.685181 256.462433,870.953979   C253.132507,867.495117 250.080170,864.216187 247.027863,860.937256   C247.027863,860.937256 247.004578,860.997803 246.999588,860.627319   C244.941513,857.279968 242.888428,854.303162 240.890045,850.904602   C241.601318,845.286926 237.385971,842.640747 235.049652,838.974609   C233.865509,837.116394 233.459167,834.780823 232.506546,832.752441   C231.103104,829.764160 230.235046,825.912659 225.246201,827.167358   C225.028900,826.759949 224.976547,826.580017 225.227081,826.301636   C222.054108,820.036682 221.634308,812.889099 217.754700,806.513428   C212.668915,798.155396 210.239090,788.124329 207.072388,778.676941   C205.201660,773.096008 204.267975,767.207520 202.611404,761.545532   C201.749588,758.600037 200.233627,755.845886 199.013153,753.005310   C198.597412,751.014526 198.181686,749.023682 197.866150,746.250122   C197.611130,743.992981 197.255951,742.518677 196.900772,741.044312   C196.900772,741.044312 196.756897,740.658325 196.901794,740.068909   C196.489380,732.291565 195.966858,725.100708 195.364059,717.916626   C194.857086,711.874756 194.256699,705.840820 193.678406,699.595459   C195.302612,699.352966 196.093826,699.131775 196.885147,699.131470   C248.131149,699.108582 299.377167,699.091614 350.623016,699.174194   C351.772491,699.176025 352.920105,700.327026 353.593750,700.962769   C301.654694,700.983582 250.190475,700.983582 198.726273,700.983582   C198.728806,701.655701 198.731354,702.327881 198.733902,703.000000   C216.010498,703.000000 233.287079,703.000000 250.563675,703.000000   C268.051636,703.000000 285.539612,702.991455 303.027557,703.002441   C320.179230,703.013245 337.333191,702.951782 354.410889,703.043335   C354.428162,703.146118 354.242035,702.039062 354.420593,700.909790   C355.514832,700.916870 356.244446,700.946167 356.974030,700.975403   C356.974030,700.975403 357.025696,701.020508 356.902161,701.404419   C356.899628,706.175964 356.561310,710.638916 357.264709,714.931152   C358.041718,719.672302 359.773407,724.257019 361.089325,728.909912   C361.089325,728.909912 361.044800,728.954956 361.012543,729.362061   C361.866211,732.217834 362.752167,734.666382 363.638092,737.114990   C363.775421,737.500732 363.912781,737.886536 364.028748,738.883057   C364.311005,739.995239 364.614624,740.496643 364.918243,740.998047   C364.918243,740.998047 364.995544,741.041382 364.920258,741.449585   C365.646027,743.516724 366.447052,745.175720 367.248108,746.834717   C367.812622,748.000122 368.377106,749.165466 368.750916,750.793213   C369.063782,751.821472 369.567352,752.387390 370.070923,752.953308   C379.798553,771.576416 393.282654,786.897522 410.516235,798.911011   C412.559448,800.335388 414.691589,801.632263 417.286041,803.391418   C427.160309,808.354553 436.531036,812.914551 445.901733,817.474548   C446.006836,817.808716 446.231934,818.005798 447.084290,818.175964   C448.385803,818.503723 449.180023,818.721375 449.974213,818.939026   C449.974213,818.939026 450.385254,819.111572 450.867096,819.345703   C476.784210,828.495239 503.057678,832.429138 529.930359,832.801941   C534.646545,832.863220 539.362793,832.924561 545.001709,832.970093   C571.693909,832.354187 597.026550,829.067810 621.338013,820.071716   C633.832764,815.448181 645.937805,809.969971 656.141968,801.081543   C679.361328,784.006104 691.653748,760.686829 695.045471,732.426819   C696.847778,717.410522 696.348267,702.472046 691.491394,687.973145   C685.021301,668.658386 671.502747,655.338562 654.461182,645.142517   C639.517273,636.201477 623.370422,630.069336 606.105347,624.787231   C595.961182,621.996460 586.495667,619.414062 577.021423,616.406311   C576.870667,614.416992 576.728760,612.853027 576.654785,612.037659   C571.486084,610.933472 567.126343,609.731140 562.685242,609.144958   C559.520020,608.727173 556.143921,609.668213 553.039307,609.074951   C545.116821,607.561035 537.335205,605.306763 529.409424,603.815063   C526.389771,603.246643 523.130432,603.951538 519.632019,604.078735   C518.843018,603.940002 518.402344,603.798706 517.751038,603.454102   C516.969788,603.204468 516.399231,603.158081 515.467407,603.114868   C514.388428,603.099426 513.670654,603.080750 512.952881,603.062012   C512.952881,603.062012 512.597717,602.856445 512.094360,602.653015   C498.401672,599.264404 485.212250,596.079224 472.004639,592.508179   C471.117981,591.107605 470.376465,589.377502 469.360077,589.197144   C463.791138,588.209229 458.154816,587.601440 452.547882,586.863892   C452.848572,581.032410 449.207733,583.163208 446.711060,583.529236   C445.011353,583.778320 443.392914,584.582214 441.360596,585.103394   C409.475159,576.711548 378.476257,566.856812 348.632507,553.616943   C342.119263,550.727356 335.645325,547.749207 329.153259,544.811890   C329.153259,544.811890 328.980560,544.902161 328.918396,544.561646   C324.010620,541.700806 319.164978,539.180542 314.319336,536.660278   C314.319336,536.660278 314.237579,536.981995 314.141907,536.516846   C298.392517,526.532654 283.300781,516.212524 270.232330,503.291138   C262.940308,496.081116 256.217010,488.295898 249.237442,480.769867   C249.237442,480.769867 249.049408,480.911285 249.112930,480.489044   C244.910233,473.607635 240.644012,467.148499 236.377792,460.689331   C236.377792,460.689331 236.329102,460.638885 236.318283,460.288025   C235.598984,458.897339 234.890488,457.857544 234.181992,456.817719   C234.181992,456.817719 234.093506,457.013733 234.134674,456.564484   C232.835693,453.696075 231.495544,451.276917 230.155396,448.857758   C230.155396,448.857758 230.193527,448.901886 230.192429,448.499695   C227.416031,440.481354 224.640747,432.865234 221.950012,424.867920   C222.344681,420.965332 222.768723,417.447693 222.886597,413.919830   C222.916901,413.012665 222.203308,411.795074 221.451675,411.199280   C218.888763,409.167938 216.110901,401.560455 217.514023,398.626465   C220.956146,391.428986 219.260681,385.698334 213.035553,380.610718   C212.917786,379.516541 212.904922,378.778625 213.211365,377.761047   C213.685928,375.683105 213.971054,373.885223 213.975739,372.086578   C214.010681,358.644714 213.969452,345.202637 214.017120,331.760834   C214.022217,330.320465 213.964127,328.040131 214.755951,327.588745   C218.046387,325.712738 216.784821,323.251007 216.414948,320.666168   C216.091248,318.404083 216.403946,316.056183 216.160446,313.775604   C215.986984,312.151093 215.357162,310.575317 214.907410,308.641327   C214.985123,307.868500 215.086456,307.432190 215.423950,306.796143   C215.733734,305.386108 215.807358,304.175842 215.877838,302.631714   C215.973083,301.864777 216.071472,301.431671 216.421173,300.769958   C217.460312,299.325287 218.610580,298.204865 218.961670,296.873657   C219.730484,293.958527 222.888809,290.892120 218.891846,287.602356   C219.056396,286.473480 219.223495,285.727844 219.565842,284.830139   C219.929626,284.403931 219.979889,284.106476 219.893250,283.578949   C219.894653,283.372284 220.114746,283.022430 220.466461,282.946411   C221.939163,279.909912 222.274429,276.075195 224.366379,274.195038   C227.457382,271.416962 226.284927,269.473297 224.898514,266.630127   C225.034286,265.860321 225.159515,265.429352 225.481934,264.846680   C225.902603,264.412323 225.968002,264.096863 225.906281,263.386169   C232.354004,244.987015 240.602921,227.870132 251.653442,212.184647   C256.116150,205.850113 260.747833,199.634613 265.302643,193.364960   C265.302643,193.364960 265.301788,193.293228 265.654816,193.218369   C272.679291,186.418274 279.138733,179.463852 286.086151,173.036942   C292.150574,167.426865 298.764709,162.411041 305.135986,157.132675   C305.135986,157.132675 305.131317,157.011795 305.492920,157.044434   C310.668915,153.826523 315.483276,150.575974 320.297638,147.325424   C320.297638,147.325424 320.162689,147.115356 320.532104,147.202652   C321.959442,146.554321 323.017395,145.818680 324.075348,145.083069   C324.075348,145.083069 324.009003,145.052048 324.403687,145.054611   C335.576996,139.711929 346.355591,134.366684 357.134186,129.021423  M215.482254,377.583801   C215.482254,377.583801 215.422333,377.480774 215.482254,377.583801  z"/>
<path fill="#E0F5F7" opacity="1.000000" stroke="none" d=" M434.372223,961.172729   C439.683960,961.635376 445.322845,962.312805 450.971008,962.901550   C452.280670,963.038086 453.792847,963.264160 454.918091,962.774292   C459.058746,960.971741 462.874390,958.605896 466.159546,964.464844   C466.708771,965.444336 470.934235,964.965271 473.170349,964.250671   C476.288239,963.254211 478.815704,962.429993 482.016998,964.546631   C483.819641,965.738586 486.775330,965.243042 489.218811,965.381653   C490.189850,965.436646 491.457001,964.693970 492.117218,965.093872   C496.671265,967.852295 501.107544,964.799805 505.569916,965.057678   C508.567963,965.230957 510.966797,965.555908 514.005981,967.790222   C517.269165,970.189270 523.709717,968.389404 528.755859,968.205566   C533.791748,968.022217 538.841492,967.104187 543.842285,967.356750   C549.935364,967.664490 555.983704,968.858032 562.758972,969.763000   C562.151428,967.431641 561.893921,966.443420 561.358093,964.387207   C569.276367,965.269897 576.533936,966.078857 583.909973,966.901062   C583.615967,966.285583 583.338257,965.704163 583.378418,965.788269   C587.089233,964.912476 590.803162,963.765137 594.603027,963.243713   C596.783020,962.944641 599.102844,963.869202 601.358948,963.864685   C603.807922,963.859802 607.184692,964.330688 608.516663,962.978394   C611.557312,959.891418 614.231018,961.230286 617.424072,961.846375   C619.942688,962.332153 622.656433,961.879395 625.278137,961.741150   C629.546753,961.516174 633.811096,961.207703 638.541504,960.969666   C626.766724,962.969116 614.578430,965.381226 602.274902,966.776672   C588.878540,968.296082 575.375122,968.871765 561.011292,969.877930   C544.389587,969.945557 528.674988,969.994141 512.960388,970.042725   C504.683960,969.699036 496.385010,969.624207 488.137573,968.934204   C480.286682,968.277466 472.476776,967.066833 464.671967,965.939697   C454.670166,964.495239 444.691437,962.890808 434.372223,961.172729  z"/>
<path fill="#134CCD" opacity="1.000000" stroke="none" d=" M673.016785,367.001678   C673.496155,370.067047 676.046509,369.692352 678.603027,369.691620   C729.753174,369.677429 780.903381,369.707611 832.508301,369.835632   C833.027588,370.754852 833.241943,372.253113 833.133911,372.276733   C831.538269,372.625610 829.899902,372.951843 828.271484,372.952881   C780.413330,372.983429 732.555176,372.977051 684.697021,372.976562   C680.983582,372.976532 677.270081,372.976562 673.270752,372.976562   C673.153320,370.715790 673.069031,369.092987 673.016785,367.001678  z"/>
<path fill="#245DE1" opacity="1.000000" stroke="none" d=" M329.127686,545.198425   C335.645325,547.749207 342.119263,550.727356 348.632507,553.616943   C378.476257,566.856812 409.475159,576.711548 441.666199,585.335327   C451.253174,588.024658 460.156982,590.447327 469.005859,592.953857   C468.950897,593.037659 468.820984,593.190247 468.820984,593.190247   C462.055206,593.041809 455.647675,592.168213 449.188507,589.320679   C443.283813,586.717468 436.389069,586.386780 429.957153,584.936829   C427.931610,584.480164 426.029297,583.478577 424.004364,583.016968   C420.709259,582.265747 417.192383,582.208252 414.063873,581.056946   C404.061859,577.376099 394.277344,573.098206 384.246582,569.503601   C377.916382,567.235046 371.296265,565.775574 365.242279,564.075623   C363.262726,562.935059 361.664642,561.780579 359.893616,561.039185   C355.169830,559.061646 350.316040,557.390320 345.618683,555.355408   C340.904694,553.313354 336.264801,551.079529 331.711761,548.701355   C330.602020,548.121704 329.959442,546.647705 329.127686,545.198425  z"/>
<path fill="#245DE1" opacity="1.000000" stroke="none" d=" M219.390610,284.982208   C219.223495,285.727844 219.056396,286.473480 218.659332,287.896912   C217.676208,292.716003 216.923035,296.857269 216.169861,300.998566   C216.071472,301.431671 215.973083,301.864777 215.644226,302.895508   C215.338455,304.660736 215.263123,305.828278 215.187790,306.995850   C215.086456,307.432190 214.985123,307.868500 214.678131,308.965210   C213.520737,321.028320 212.032883,332.418701 211.768356,343.837402   C211.504578,355.223724 212.467163,366.638458 212.892059,378.040741   C212.904922,378.778625 212.917786,379.516541 212.966522,381.042847   C213.875793,386.337189 214.749191,390.843048 215.689026,395.377014   C215.755447,395.405090 215.857040,395.507538 215.532745,395.725159   C217.427444,405.711548 219.646454,415.480316 221.865448,425.249084   C224.640747,432.865234 227.416031,440.481354 230.188171,448.470245   C228.962692,447.871643 227.229599,447.155457 226.597229,445.889465   C220.425201,433.532990 218.009750,419.952148 214.629623,406.747803   C212.441925,398.201569 212.688324,389.057922 210.880737,380.382660   C208.270859,367.856934 210.041809,355.325684 210.258774,342.871887   C210.527390,327.451569 212.513214,312.042053 214.190369,296.675140   C214.829330,290.820618 216.585464,285.076263 218.018570,279.328125   C218.390762,277.835236 219.463654,276.517029 220.744003,275.165131   C221.273285,275.211670 221.624908,275.489288 221.556580,275.864563   C221.030426,278.500732 220.572586,280.761566 220.114746,283.022430   C220.114746,283.022430 219.894653,283.372284 219.698853,283.718719   C219.301498,284.350739 219.264023,284.656433 219.390610,284.982208  z"/>
<path fill="#1E5ADC" opacity="1.000000" stroke="none" d=" M655.717773,801.039917   C645.937805,809.969971 633.832764,815.448181 621.338013,820.071716   C597.026550,829.067810 571.693909,832.354187 545.462036,832.889832   C549.291443,829.591187 554.341492,828.002686 559.344788,829.379089   C561.916687,830.086609 563.558228,829.713562 565.911987,829.266663   C572.284973,828.056641 578.852112,827.910217 585.277893,826.923279   C590.011658,826.196228 594.650330,824.835144 599.319824,823.709167   C602.816467,822.866028 606.371948,822.172852 609.764709,821.013611   C616.019714,818.876343 622.279846,816.689575 628.342102,814.070435   C634.702576,811.322449 640.835632,808.047607 647.063416,804.993408   C649.801514,803.650696 651.175293,799.499573 655.717773,801.039917  z"/>
<path fill="#245DE1" opacity="1.000000" stroke="none" d=" M225.284729,264.998383   C225.159515,265.429352 225.034286,265.860321 224.641800,266.867798   C223.457977,270.125946 222.541428,272.807617 221.624908,275.489288   C221.624908,275.489288 221.273285,275.211670 221.097137,275.071594   C220.580322,270.948090 220.738373,267.673065 223.540604,263.818878   C226.944275,259.137451 227.439255,252.456604 230.134125,247.115814   C233.658051,240.131943 234.860611,232.282837 240.433685,225.918579   C245.594696,220.024902 247.897476,211.704971 252.683197,205.379776   C256.024536,200.963562 258.075928,194.733826 264.930603,193.279236   C260.747833,199.634613 256.116150,205.850113 251.653442,212.184647   C240.602921,227.870132 232.354004,244.987015 225.705917,263.534119   C225.273926,264.335144 225.210632,264.653107 225.284729,264.998383  z"/>
<path fill="#245DE1" opacity="1.000000" stroke="none" d=" M249.169708,481.161438   C256.217010,488.295898 262.940308,496.081116 270.232330,503.291138   C283.300781,516.212524 298.392517,526.532654 314.173004,536.355713   C312.789368,536.340454 311.255127,536.104797 309.774292,535.681946   C307.697601,535.088867 305.643250,534.404236 303.614380,533.662781   C302.690491,533.325134 301.486450,532.985962 301.030090,532.258240   C297.211731,526.169678 290.553253,523.875122 285.151215,519.882812   C280.573364,516.499573 276.853760,511.966888 272.680542,508.020966   C268.620697,504.182251 263.714233,500.973877 260.565521,496.510834   C257.387177,492.005890 250.931152,490.894165 249.551239,484.959503   C249.293076,483.849213 249.246277,482.689789 249.169708,481.161438  z"/>
<path fill="#B1D2FD" opacity="1.000000" stroke="none" d=" M357.066467,700.632385   C356.244446,700.946167 355.514832,700.916870 354.393677,700.944336   C354.002136,701.001099 354.068604,700.941956 354.068604,700.941956   C352.920105,700.327026 351.772491,699.176025 350.623016,699.174194   C299.377167,699.091614 248.131149,699.108582 196.885147,699.131470   C196.093826,699.131775 195.302612,699.352966 193.678406,699.595459   C194.256699,705.840820 194.857086,711.874756 195.364059,717.916626   C195.966858,725.100708 196.489380,732.291565 196.908539,739.863037   C193.972931,726.689819 192.376373,713.023987 193.571594,698.664307   C248.338791,698.184021 302.572174,698.192444 356.805573,698.200867   C356.923340,698.897034 357.041107,699.593201 357.066467,700.632385  z"/>
<path fill="#1E5ADC" opacity="1.000000" stroke="none" d=" M529.772949,832.482544   C503.057678,832.429138 476.784210,828.495239 451.088837,819.322998   C454.489410,819.696106 458.151184,820.319824 461.810516,820.957336   C469.591034,822.312805 477.730499,822.658203 485.071198,825.257812   C498.260712,829.928528 511.690125,828.695251 525.114258,829.167053   C526.647888,829.220886 528.116638,831.119812 529.772949,832.482544  z"/>
<path fill="#D8F1FA" opacity="1.000000" stroke="none" d=" M198.972137,753.424805   C200.233627,755.845886 201.749588,758.600037 202.611404,761.545532   C204.267975,767.207520 205.201660,773.096008 207.072388,778.676941   C210.239090,788.124329 212.668915,798.155396 217.754700,806.513428   C221.634308,812.889099 222.054108,820.036682 224.990356,826.109741   C222.648819,822.849426 220.846939,819.682434 219.045074,816.515503   C211.296112,798.918640 204.624207,780.954224 200.538391,762.112549   C199.943512,759.369324 199.464005,756.600952 198.972137,753.424805  z"/>
<path fill="#225AD4" opacity="1.000000" stroke="none" d=" M577.030212,616.831665   C586.495667,619.414062 595.961182,621.996460 605.721008,624.793579   C599.859070,623.843079 593.707581,622.651794 587.544983,621.520813   C582.705627,620.632690 577.835083,619.905701 573.013916,618.931213   C570.977539,618.519592 569.077332,617.400085 567.038025,617.043396   C558.714294,615.587402 550.291931,614.618225 542.045654,612.826477   C537.593018,611.859009 533.422607,609.592407 529.051941,607.463989   C528.979004,607.016113 529.125305,606.839783 529.532715,606.832642   C530.919189,606.993103 531.905945,607.125427 532.876343,607.333801   C547.595581,610.493896 562.312622,613.663940 577.030212,616.831665  z"/>
<path fill="#2851BA" opacity="1.000000" stroke="none" d=" M356.710083,697.884399   C302.572174,698.192444 248.338791,698.184021 193.658554,698.219543   C195.010193,697.842712 196.808121,697.056885 198.607208,697.054260   C247.524155,696.983459 296.441223,697.013428 345.358154,696.932739   C348.048492,696.928284 350.728607,695.899292 353.431671,695.787537   C354.466339,695.744812 355.552094,696.937927 356.710083,697.884399  z"/>
<path fill="#245DE1" opacity="1.000000" stroke="none" d=" M304.715851,157.076263   C298.764709,162.411041 292.150574,167.426865 286.086151,173.036942   C279.138733,179.463852 272.679291,186.418274 265.690643,193.220398   C265.746521,190.603287 266.119598,187.909286 266.492676,185.215271   C266.887329,185.501480 267.281982,185.787704 267.676666,186.073929   C269.550354,184.610016 271.639313,183.349167 273.252319,181.639313   C276.461945,178.236969 279.081909,174.217575 282.554871,171.140961   C286.278015,167.842728 290.718353,165.358795 294.809509,162.468338   C295.979523,161.641739 296.914276,160.436401 298.151367,159.760971   C300.113464,158.689682 302.239197,157.918182 304.715851,157.076263  z"/>
<path fill="#E0F2F4" opacity="1.000000" stroke="none" d=" M544.727783,456.749512   C541.850464,457.610077 538.737183,458.485077 535.576233,458.720947   C533.116089,458.904510 529.851746,460.575317 528.646851,456.277466   C528.454407,455.591309 526.491516,455.092621 525.325317,455.045197   C521.543701,454.891388 517.751892,454.987732 513.429382,454.987732   C513.267151,453.101776 513.132202,451.533569 512.988892,449.535461   C523.477417,451.566528 533.974304,454.027588 544.727783,456.749512  z"/>
<path fill="#E2F7F1" opacity="1.000000" stroke="none" d=" M368.650146,359.636108   C362.720856,358.824860 365.661011,353.760834 364.848175,350.588562   C363.580231,345.640167 363.330414,340.365326 363.187042,335.213867   C363.059906,330.644531 363.665283,326.054810 364.281219,321.504578   C365.797546,318.903717 367.234039,325.336395 368.578674,321.216309   C366.874268,333.754181 365.913818,346.486847 368.650146,359.636108  z"/>
<path fill="#275CD0" opacity="1.000000" stroke="none" d=" M218.955353,816.863098   C220.846939,819.682434 222.648819,822.849426 224.687439,826.208252   C224.976547,826.580017 225.028900,826.759949 225.328384,827.508057   C230.662125,835.826355 235.748718,843.576355 240.835327,851.326355   C242.888428,854.303162 244.941513,857.279968 247.029388,860.614563   C243.396484,857.620117 239.302399,854.615479 236.196045,850.805603   C233.710312,847.757019 232.592682,843.632019 230.570389,840.157898   C227.003769,834.030640 223.116287,828.089294 219.588242,821.940979   C218.847946,820.650757 219.081055,818.802063 218.955353,816.863098  z"/>
<path fill="#E1F2F1" opacity="1.000000" stroke="none" d=" M576.058838,464.612915   C570.590576,464.840973 564.810425,464.840973 558.612000,464.840973   C559.475891,460.581512 556.885132,460.711151 553.998169,461.153320   C554.307983,461.749390 554.604309,462.319458 554.847046,462.786499   C551.802795,462.786499 548.842773,462.786499 545.369873,462.786499   C545.239197,461.044495 545.120667,459.464630 544.995972,457.449432   C555.242126,459.470978 565.494507,461.927887 576.058838,464.612915  z"/>
<path fill="#225AD4" opacity="1.000000" stroke="none" d=" M472.022858,592.894043   C485.212250,596.079224 498.401672,599.264404 511.892609,602.689941   C502.941162,604.059937 494.537170,600.462463 485.854034,598.313660   C482.584229,597.504456 479.068665,597.694580 475.792633,596.902100   C473.457367,596.337097 471.335022,594.891907 468.969330,593.514893   C468.820984,593.190247 468.950897,593.037659 469.378235,592.944946   C470.544678,592.866211 471.283752,592.880127 472.022858,592.894043  z"/>
<path fill="#245DE1" opacity="1.000000" stroke="none" d=" M356.690796,128.977097   C346.355591,134.366684 335.576996,139.711929 324.437988,145.076797   C324.022552,139.351334 329.604065,139.463867 332.703125,137.583511   C337.768524,134.510071 343.665131,132.771835 349.282227,130.659561   C351.505951,129.823349 353.920013,129.493286 356.690796,128.977097  z"/>
<path fill="#DBF0F8" opacity="1.000000" stroke="none" d=" M785.735352,544.773315   C780.823792,542.892883 774.514343,543.066345 771.169312,537.423218   C770.991028,537.122437 770.232910,536.953613 769.810669,537.041260   C763.979614,538.250977 763.485596,533.571655 761.969116,529.633179   C769.812256,534.348083 777.667114,539.433655 785.735352,544.773315  z"/>
<path fill="#295FCB" opacity="1.000000" stroke="none" d=" M445.886169,817.101318   C436.531036,812.914551 427.160309,808.354553 417.592255,803.494385   C420.791656,804.412170 424.206299,805.582764 427.580170,806.860962   C431.119507,808.201782 434.766083,809.369385 438.091949,811.129944   C440.888947,812.610413 443.292725,814.833740 445.886169,817.101318  z"/>
<path fill="#DFF2F7" opacity="1.000000" stroke="none" d=" M283.037964,896.003174   C284.641174,895.749329 286.244385,895.495483 286.980469,895.378967   C292.420380,898.733276 294.377686,905.476807 301.707520,905.561890   C304.736572,905.597107 305.289185,908.494019 304.942078,911.617371   C299.566742,908.392578 294.222198,904.765198 288.399078,900.726440   C286.292999,898.877747 284.665497,897.440430 283.037964,896.003174  z"/>
<path fill="#D9F2F5" opacity="1.000000" stroke="none" d=" M646.623413,294.568115   C650.369141,293.347198 654.668152,291.765808 653.434448,298.727112   C653.388428,298.986542 653.620300,299.451019 653.855103,299.581329   C658.334534,302.067352 657.671082,306.432953 657.819824,310.829163   C654.082275,305.754425 650.404358,300.331451 646.623413,294.568115  z"/>
<path fill="#D4EFFA" opacity="1.000000" stroke="none" d=" M762.300537,191.913879   C759.114075,193.701706 756.965027,193.367538 755.177551,189.448700   C753.942322,186.740570 750.820129,184.929733 748.697937,182.576492   C747.332153,181.061935 746.250610,179.291000 745.049072,177.253845   C750.752686,181.794754 756.448792,186.716797 762.300537,191.913879  z"/>
<path fill="#245DE1" opacity="1.000000" stroke="none" d=" M236.271118,461.038849   C240.644012,467.148499 244.910233,473.607635 249.209229,480.414001   C247.262466,479.185852 245.118408,477.773315 243.351089,475.987885   C241.680496,474.300293 240.035065,472.393280 239.048340,470.271301   C237.745346,467.469208 237.095200,464.363525 236.271118,461.038849  z"/>
<path fill="#275CD0" opacity="1.000000" stroke="none" d=" M247.016098,861.335327   C250.080170,864.216187 253.132507,867.495117 256.575775,871.273804   C259.330719,874.145935 261.694702,876.518250 264.058655,878.890625   C264.058655,878.890625 264.022614,878.968811 264.136963,879.223328   C264.550140,879.937500 264.848938,880.397095 265.055359,880.940796   C264.962982,881.024902 264.776123,881.190674 264.776123,881.190674   C262.742798,879.810913 260.282074,878.791138 258.758392,876.982056   C254.627808,872.078186 250.894928,866.839355 247.016098,861.335327  z"/>
<path fill="#CEE9F5" opacity="1.000000" stroke="none" d=" M624.136658,273.296448   C627.492676,273.783264 631.678772,272.743164 633.004395,278.317932   C633.442505,280.160187 637.493408,281.143311 640.819702,283.051056   C640.842590,283.455231 640.944641,285.254822 641.038208,287.466888   C635.463013,283.109222 629.896179,278.339081 624.136658,273.296448  z"/>
<path fill="#DAF0F4" opacity="1.000000" stroke="none" d=" M826.192688,847.637207   C825.618896,845.033997 824.824646,842.203796 825.169128,839.519836   C825.645142,835.811462 828.869080,836.286499 831.791138,836.248291   C830.143250,839.849609 828.311646,843.662537 826.192688,847.637207  z"/>
<path fill="#255590" opacity="1.000000" stroke="none" d=" M513.239319,970.363037   C528.674988,969.994141 544.389587,969.945557 560.572083,969.977600   C560.479858,970.358276 559.919006,970.921387 559.359741,970.919800   C544.079163,970.876282 528.798706,970.775085 513.239319,970.363037  z"/>
<path fill="#245DE1" opacity="1.000000" stroke="none" d=" M319.900604,147.213348   C315.483276,150.575974 310.668915,153.826523 305.507751,157.104218   C305.169250,156.266418 304.815887,154.952698 305.243530,154.608047   C308.446960,152.026352 311.700958,149.471115 315.176453,147.284897   C316.237518,146.617462 318.040405,147.129440 319.900604,147.213348  z"/>
<path fill="#DAF5F6" opacity="1.000000" stroke="none" d=" M707.878540,150.690460   C701.417725,154.538681 700.334106,154.009903 698.993347,146.329742   C701.924255,147.454269 704.865601,148.906174 707.878540,150.690460  z"/>
<path fill="#245DE1" opacity="1.000000" stroke="none" d=" M314.266449,537.035400   C319.164978,539.180542 324.010620,541.700806 329.007446,544.525696   C323.096405,544.533569 318.387146,541.511536 314.266449,537.035400  z"/>
<path fill="#B1D2FD" opacity="1.000000" stroke="none" d=" M361.132629,728.494812   C359.773407,724.257019 358.041718,719.672302 357.264709,714.931152   C356.561310,710.638916 356.899628,706.175964 356.882446,701.432495   C358.382812,710.077698 359.779388,719.078674 361.132629,728.494812  z"/>
<path fill="#295CD0" opacity="1.000000" stroke="none" d=" M273.072693,887.323303   C273.494415,887.812012 273.916168,888.300781 274.695190,889.161255   C275.227539,889.821228 275.402649,890.109436 275.414246,890.568115   C275.250702,890.738525 274.923706,891.079285 274.923706,891.079285   C272.413971,889.694763 269.665985,888.601379 267.484070,886.816223   C266.178070,885.747742 265.757843,883.596619 264.857788,881.561401   C264.776123,881.190674 264.962982,881.024902 265.365143,881.061890   C268.202423,883.173645 270.637573,885.248474 273.072693,887.323303  z"/>
<path fill="#295CD0" opacity="1.000000" stroke="none" d=" M282.902832,895.936157   C284.665497,897.440430 286.292999,898.877747 288.090179,900.605591   C283.331085,902.803589 282.246613,897.464600 279.129089,895.924194   C277.495392,895.116882 276.427643,893.164185 275.014038,891.404053   C274.923706,891.079285 275.250702,890.738525 275.705353,890.730591   C278.339111,892.340332 280.518219,893.958008 282.697327,895.575684   C282.697327,895.575684 282.767639,895.869141 282.902832,895.936157  z"/>
<path fill="#225AD4" opacity="1.000000" stroke="none" d=" M512.806519,603.302734   C513.670654,603.080750 514.388428,603.099426 515.674561,603.323120   C516.815857,603.571228 517.388733,603.614258 517.961670,603.657349   C518.402344,603.798706 518.843018,603.940002 519.903015,604.333252   C523.390015,605.336731 526.257629,606.088257 529.125305,606.839783   C529.125305,606.839783 528.979004,607.016113 528.905396,607.106262   C523.500427,606.458496 518.167664,605.730347 512.846558,604.924744   C512.717651,604.905273 512.719299,604.023132 512.806519,603.302734  z"/>
<path fill="#D4EFFA" opacity="1.000000" stroke="none" d=" M776.918396,208.662369   C773.198059,208.685883 769.546570,204.744980 768.897217,199.872253   C771.545654,202.448883 774.190125,205.391785 776.918396,208.662369  z"/>
<path fill="#D4EFFA" opacity="1.000000" stroke="none" d=" M768.488159,198.804565   C762.260925,198.806183 761.379883,197.977600 762.581177,192.930634   C764.675659,194.590637 766.532410,196.549347 768.488159,198.804565  z"/>
<path fill="#245DE1" opacity="1.000000" stroke="none" d=" M230.099838,449.287476   C231.495544,451.276917 232.835693,453.696075 234.193359,456.474304   C232.794617,456.833344 231.378357,456.833344 229.627472,456.833344   C229.774200,454.328461 229.909241,452.022858 230.099838,449.287476  z"/>
<path fill="#D9F2F5" opacity="1.000000" stroke="none" d=" M657.781860,311.594238   C663.351746,311.781006 661.235291,316.628784 662.190063,319.831909   C660.550049,317.350891 659.172180,314.651093 657.781860,311.594238  z"/>
<path fill="#1E5ADC" opacity="1.000000" stroke="none" d=" M498.610138,826.895813   C498.979980,824.484192 499.763580,824.417297 505.202972,826.953979   C502.299957,826.953979 500.638092,826.953979 498.610138,826.895813  z"/>
<path fill="#CEE9F5" opacity="1.000000" stroke="none" d=" M642.167725,289.312012   C645.124878,288.547699 646.317993,289.987518 646.087158,293.279480   C644.809631,292.315704 643.529602,290.966705 642.167725,289.312012  z"/>
<path fill="#B1D2FD" opacity="1.000000" stroke="none" d=" M363.630493,736.748779   C362.752167,734.666382 361.866211,732.217834 361.044189,729.363159   C361.946350,731.432251 362.784607,733.907471 363.630493,736.748779  z"/>
<path fill="#DFF2F7" opacity="1.000000" stroke="none" d=" M305.115234,912.392944   C307.295715,913.385864 309.596191,914.684326 311.972351,916.298950   C309.777069,915.309631 307.506134,914.004089 305.115234,912.392944  z"/>
<path fill="#245DE1" opacity="1.000000" stroke="none" d=" M234.120346,457.199799   C234.890488,457.857544 235.598984,458.897339 236.323837,460.253418   C232.171204,462.176514 234.758850,458.623901 234.120346,457.199799  z"/>
<path fill="#B1D2FD" opacity="1.000000" stroke="none" d=" M367.251495,746.475342   C366.447052,745.175720 365.646027,743.516724 364.896667,741.487061   C365.717224,742.782898 366.486084,744.449402 367.251495,746.475342  z"/>
<path fill="#245DE1" opacity="1.000000" stroke="none" d=" M323.706940,145.026794   C323.017395,145.818680 321.959442,146.554321 320.571930,147.320984   C321.274414,146.558167 322.306488,145.764343 323.706940,145.026794  z"/>
<path fill="#B1D2FD" opacity="1.000000" stroke="none" d=" M370.066956,752.656372   C369.567352,752.387390 369.063782,751.821472 368.808838,751.115112   C369.392639,751.436218 369.727814,751.897766 370.066956,752.656372  z"/>
<path fill="#B1D2FD" opacity="1.000000" stroke="none" d=" M196.826233,741.428406   C197.255951,742.518677 197.611130,743.992981 197.857269,745.861511   C197.416061,744.774597 197.083893,743.293579 196.826233,741.428406  z"/>
<path fill="#1E5ADC" opacity="1.000000" stroke="none" d=" M449.768463,818.683838   C449.180023,818.721375 448.385803,818.503723 447.315247,818.134827   C447.880157,818.131958 448.721436,818.280334 449.768463,818.683838  z"/>
<path fill="#B1D2FD" opacity="1.000000" stroke="none" d=" M364.980377,740.695190   C364.614624,740.496643 364.311005,739.995239 364.070953,739.189392   C364.437164,739.387451 364.739838,739.889893 364.980377,740.695190  z"/>
<path fill="#CEE9F5" opacity="1.000000" stroke="none" d=" M641.110352,288.261292   C641.414612,288.063416 641.657837,288.224426 641.894409,288.709351   C641.580200,288.990479 641.300659,288.852783 641.110352,288.261292  z"/>
<path fill="#FDFFE7" opacity="1.000000" stroke="none" d=" M354.029022,700.966553   C354.242035,702.039062 354.428162,703.146118 354.410889,703.043335   C337.333191,702.951782 320.179230,703.013245 303.027557,703.002441   C285.539612,702.991455 268.051636,703.000000 250.563675,703.000000   C233.287079,703.000000 216.010498,703.000000 198.733902,703.000000   C198.731354,702.327881 198.728806,701.655701 198.726273,700.983582   C250.190475,700.983582 301.654694,700.983582 353.593750,700.962769   C354.068604,700.941956 354.002136,701.001099 354.029022,700.966553  z"/>
<path fill="#E0F3F7" opacity="1.000000" stroke="none" d=" M529.532715,606.832642   C526.257629,606.088257 523.390015,605.336731 520.251343,604.330688   C523.130432,603.951538 526.389771,603.246643 529.409424,603.815063   C537.335205,605.306763 545.116821,607.561035 553.039307,609.074951   C556.143921,609.668213 559.520020,608.727173 562.685242,609.144958   C567.126343,609.731140 571.486084,610.933472 576.654785,612.037659   C576.728760,612.853027 576.870667,614.416992 577.021423,616.406311   C562.312622,613.663940 547.595581,610.493896 532.876343,607.333801   C531.905945,607.125427 530.919189,606.993103 529.532715,606.832642  z"/>
<path fill="#DBF2F8" opacity="1.000000" stroke="none" d=" M213.211365,377.761047   C212.467163,366.638458 211.504578,355.223724 211.768356,343.837402   C212.032883,332.418701 213.520737,321.028320 214.701736,309.301697   C215.357162,310.575317 215.986984,312.151093 216.160446,313.775604   C216.403946,316.056183 216.091248,318.404083 216.414948,320.666168   C216.784821,323.251007 218.046387,325.712738 214.755951,327.588745   C213.964127,328.040131 214.022217,330.320465 214.017120,331.760834   C213.969452,345.202637 214.010681,358.644714 213.975739,372.086578   C213.971054,373.885223 213.685928,375.683105 213.211365,377.761047  z"/>
<path fill="#DBF2F8" opacity="1.000000" stroke="none" d=" M215.622589,395.348938   C214.749191,390.843048 213.875793,386.337189 213.071426,381.399139   C219.260681,385.698334 220.956146,391.428986 217.514023,398.626465   C216.110901,401.560455 218.888763,409.167938 221.451675,411.199280   C222.203308,411.795074 222.916901,413.012665 222.886597,413.919830   C222.768723,417.447693 222.344681,420.965332 221.950012,424.867920   C219.646454,415.480316 217.427444,405.711548 215.746124,395.519958   C216.348434,394.702332 216.413071,394.307495 216.477722,393.912689   C216.192688,394.391449 215.907639,394.870209 215.622589,395.348938  z"/>
<path fill="#DAF1F8" opacity="1.000000" stroke="none" d=" M472.004639,592.508179   C471.283752,592.880127 470.544678,592.866211 469.433167,592.861206   C460.156982,590.447327 451.253174,588.024658 442.043732,585.369995   C443.392914,584.582214 445.011353,583.778320 446.711060,583.529236   C449.207733,583.163208 452.848572,581.032410 452.547882,586.863892   C458.154816,587.601440 463.791138,588.209229 469.360077,589.197144   C470.376465,589.377502 471.117981,591.107605 472.004639,592.508179  z"/>
<path fill="#D8F1FA" opacity="1.000000" stroke="none" d=" M240.890030,850.904602   C235.748718,843.576355 230.662125,835.826355 225.493347,827.735596   C230.235046,825.912659 231.103104,829.764160 232.506546,832.752441   C233.459167,834.780823 233.865509,837.116394 235.049652,838.974609   C237.385971,842.640747 241.601318,845.286926 240.890030,850.904602  z"/>
<path fill="#DBF2F8" opacity="1.000000" stroke="none" d=" M221.556580,275.864563   C222.541428,272.807617 223.457977,270.125946 224.631241,267.206604   C226.284927,269.473297 227.457382,271.416962 224.366379,274.195038   C222.274429,276.075195 221.939163,279.909912 220.466461,282.946411   C220.572586,280.761566 221.030426,278.500732 221.556580,275.864563  z"/>
<path fill="#DFF2F7" opacity="1.000000" stroke="none" d=" M282.806885,895.151855   C280.518219,893.958008 278.339111,892.340332 275.868896,890.560181   C275.402649,890.109436 275.227539,889.821228 274.997528,889.286194   C277.762970,889.039429 280.583344,889.039429 284.129700,889.039429   C283.624512,891.407898 283.270447,893.067932 282.806885,895.151855  z"/>
<path fill="#DFF2F7" opacity="1.000000" stroke="none" d=" M273.433868,887.212402   C270.637573,885.248474 268.202423,883.173645 265.457520,880.977783   C264.848938,880.397095 264.550140,879.937500 264.178192,879.210815   C267.037384,879.945068 270.158600,880.604370 272.829193,882.079407   C274.360382,882.925110 277.406189,884.706299 273.433868,887.212402  z"/>
<path fill="#DBF2F8" opacity="1.000000" stroke="none" d=" M216.421173,300.769958   C216.923035,296.857269 217.676208,292.716003 218.661880,288.280151   C222.888809,290.892120 219.730484,293.958527 218.961670,296.873657   C218.610580,298.204865 217.460312,299.325287 216.421173,300.769958  z"/>
<path fill="#DFF2F7" opacity="1.000000" stroke="none" d=" M264.054504,878.507568   C261.694702,876.518250 259.330719,874.145935 256.853394,871.453735   C259.921631,872.685181 264.086517,873.208191 264.054504,878.507568  z"/>
<path fill="#DBF2F8" opacity="1.000000" stroke="none" d=" M215.423950,306.796143   C215.263123,305.828278 215.338455,304.660736 215.647385,303.229370   C215.807358,304.175842 215.733734,305.386108 215.423950,306.796143  z"/>
<path fill="#E0F3F7" opacity="1.000000" stroke="none" d=" M517.751038,603.454102   C517.388733,603.614258 516.815857,603.571228 516.035767,603.319946   C516.399231,603.158081 516.969788,603.204468 517.751038,603.454102  z"/>
<path fill="#DBF2F8" opacity="1.000000" stroke="none" d=" M225.481934,264.846680   C225.210632,264.653107 225.273926,264.335144 225.674957,263.896545   C225.968002,264.096863 225.902603,264.412323 225.481934,264.846680  z"/>
<path fill="#DBF2F8" opacity="1.000000" stroke="none" d=" M219.565842,284.830139   C219.264023,284.656433 219.301498,284.350739 219.697433,283.925385   C219.979889,284.106476 219.929626,284.403931 219.565842,284.830139  z"/>
<path fill="#DBF2F8" opacity="1.000000" stroke="none" d=" M215.452301,377.532288   C215.422333,377.480774 215.482254,377.583801 215.452301,377.532288  z"/>
<path fill="#FEFEFE" opacity="1.000000" stroke="none" d=" M215.689026,395.377014   C215.907639,394.870209 216.192688,394.391449 216.477722,393.912689   C216.413071,394.307495 216.348434,394.702332 216.070404,395.302338   C215.857040,395.507538 215.755447,395.405090 215.689026,395.377014  z"/>
</svg>